<?xml version="1.0" encoding="UTF-8" standalone="no"?>
<svg
   xmlns:dc="http://purl.org/dc/elements/1.1/"
   xmlns:cc="http://creativecommons.org/ns#"
   xmlns:rdf="http://www.w3.org/1999/02/22-rdf-syntax-ns#"
   xmlns:svg="http://www.w3.org/2000/svg"
   xmlns="http://www.w3.org/2000/svg"
   viewBox="0 0 869.19312 557.30646"
   height="557.30646"
   width="869.19312"
   xml:space="preserve"
   id="svg2"
   version="1.1"><metadata
     id="metadata8"><rdf:RDF><cc:Work
         rdf:about=""><dc:format>image/svg+xml</dc:format><dc:type
           rdf:resource="http://purl.org/dc/dcmitype/StillImage" /><dc:title></dc:title></cc:Work></rdf:RDF></metadata><defs
     id="defs6" /><g
     transform="matrix(1.3333333,0,0,1.3333333,0,1.6599329e-5)"
     id="g10"><g
       id="g12"><g
         id="g14"><path
           id="path16"
           style="fill:none;stroke:#fea328;stroke-width:22.42828369;stroke-linecap:butt;stroke-linejoin:round;stroke-miterlimit:4;stroke-dasharray:none;stroke-opacity:1"
           d="m 290.43,208.988 c 0,44.961 -36.453,81.414 -81.442,81.414 -44.957,0 -81.41,-36.453 -81.41,-81.414 0,-44.957 36.453,-81.41 81.41,-81.41 44.961,0 81.442,36.453 81.442,81.41 z" /></g><g
         id="g18"><path
           id="path20"
           style="fill:none;stroke:#8dae10;stroke-width:14.01760674;stroke-linecap:butt;stroke-linejoin:round;stroke-miterlimit:4;stroke-dasharray:none;stroke-opacity:1"
           d="m 577.492,208.988 c 0,74.324 -60.262,134.617 -134.617,134.617 -74.324,0 -134.586,-60.261 -134.586,-134.617 0,-74.351 60.262,-134.617 134.586,-134.617 74.355,0 134.617,60.266 134.617,134.617 z" /></g><g
         id="g22"><path
           id="path24"
           style="fill:none;stroke:#003560;stroke-width:19.625103;stroke-linecap:butt;stroke-linejoin:round;stroke-miterlimit:4;stroke-dasharray:none;stroke-opacity:1"
           d="m 497.727,208.988 c 0,30.278 -24.547,54.852 -54.852,54.852 -30.273,0 -54.848,-24.547 -54.848,-54.852 0,-30.3 24.547,-54.847 54.848,-54.847 30.305,0 54.852,24.547 54.852,54.847 z" /></g><g
         id="g26"><path
           id="path28"
           style="fill:none;stroke:#003560;stroke-width:16.82078743;stroke-linecap:butt;stroke-linejoin:round;stroke-miterlimit:4;stroke-dasharray:none;stroke-opacity:1"
           d="M 403.02,247.258 C 385.191,338.137 305.086,406.734 208.988,406.734 99.77,406.734 11.246,318.207 11.246,208.988 11.246,99.77 99.77,11.246 208.988,11.246 c 96.125,0 176.203,68.598 194.032,159.477 -9.524,9.922 -15.391,23.414 -15.391,38.265 0,14.856 5.867,28.348 15.391,38.27 z" /></g><g
         id="g30"><path
           id="path32"
           style="fill:none;stroke:#fea328;stroke-width:16.82078743;stroke-linecap:butt;stroke-linejoin:round;stroke-miterlimit:4;stroke-dasharray:none;stroke-opacity:1"
           d="m 640.648,208.988 c 0,109.219 -88.554,197.746 -197.742,197.746 -86.769,0 -160.5,-55.898 -187.117,-133.652 19.731,-14.43 32.57,-37.758 32.57,-64.094 0,-26.332 -12.812,-49.66 -32.57,-64.09 26.617,-77.753 100.348,-133.652 187.117,-133.652 109.219,0 197.742,88.555 197.742,197.742 z" /></g><g
         id="g34"><path
           id="path36"
           style="fill:none;stroke:#8dae10;stroke-width:11.21414089;stroke-linecap:butt;stroke-linejoin:round;stroke-miterlimit:4;stroke-dasharray:none;stroke-opacity:1"
           d="m 360.191,208.988 c 0,83.512 -67.691,151.203 -151.23,151.203 -83.508,0 -151.199,-67.691 -151.199,-151.203 0,-83.508 67.718,-151.226 151.199,-151.226 83.508,0 151.23,67.691 151.23,151.226 z" /></g></g></g></svg>