<?xml version="1.0" encoding="UTF-8" standalone="no"?>
<svg
   id="Ebene_2"
   viewBox="0 0 398.09645 406.27356"
   version="1.1"
   width="398.09647"
   height="406.27356"
   xmlns="http://www.w3.org/2000/svg"
   xmlns:svg="http://www.w3.org/2000/svg">
  <defs
     id="defs4">
    <clipPath
       id="clippath">
      <rect
         x="630.34003"
         y="94.800003"
         width="163.28999"
         height="228.16"
         transform="rotate(-3.06,712.26738,208.97735)"
         style="fill:none"
         id="rect1" />
    </clipPath>
    <clipPath
       id="clippath-1">
      <rect
         x="630.90997"
         y="94.660004"
         width="167.98"
         height="249.69"
         transform="rotate(-3.06,715.16972,219.54536)"
         style="fill:none"
         id="rect2" />
    </clipPath>
    <clipPath
       id="clippath-2">
      <rect
         x="462.82999"
         y="90.93"
         width="335.97"
         height="257.92001"
         transform="rotate(-3.06,631.04845,219.92112)"
         style="fill:none"
         id="rect3" />
    </clipPath>
    <clipPath
       id="clippath-3">
      <polygon
         points="802.68,365.82 784.35,31.26 1004.13,19.78 1022.46,354.35 "
         style="fill:none"
         id="polygon3" />
    </clipPath>
    <clipPath
       id="clippath-4">
      <polygon
         points="803.23,375.9 784.31,30.49 1223.87,7.54 1242.8,352.96 "
         style="fill:none"
         id="polygon4" />
    </clipPath>
  </defs>
  <rect
     x="5.2964525"
     y="18.343554"
     width="386.92999"
     height="386.92999"
     style="fill:none;stroke:#666666;stroke-width:2px;stroke-miterlimit:10"
     id="rect4" />
  <g
     clip-path="url(#clippath)"
     id="g22"
     transform="translate(-624.36352,-55.896445)">
    <g
       clip-path="url(#clippath-1)"
       id="g21">
      <g
         clip-path="url(#clippath-2)"
         id="g20">
        <path
           d="m 477.72,238.91 7.22,-0.39"
           style="fill:none;stroke:#262626;stroke-width:0.89px;stroke-linecap:square;stroke-linejoin:round"
           id="path4" />
        <path
           d="m 477.74,238.89 c 6.36,-0.34 12.74,-0.53 19.1,-0.9 6.3,-0.35 12.6,-0.87 18.91,-1.04 4.11,-0.12 8.22,-0.06 12.32,0 4.92,0.06 9.88,0.03 14.74,-0.87 6.18,-1.08 11.9,-3.78 17.36,-6.79 4.47,-2.41 8.92,-5.02 13.84,-6.41 3.85,-1.11 7.97,-1.21 11.87,-0.31 4.61,1.02 8.88,3.12 13.17,5.04 9.67,4.44 15.38,5.56 25.86,3.83 4.39,-0.67 8.93,-1.24 13.32,-0.28 6.33,1.28 11.56,5.26 17.09,8.35 2.87,1.57 6.18,3.09 9.52,2.41 5.82,-1.3 9.03,-8.54 11.14,-13.57 2.74,-6.86 4.63,-14.04 6.39,-21.21 2.29,-9.47 4.21,-19.04 6.16,-28.58 2.09,-10.19 4.11,-20.42 6.72,-30.49 1.25,-4.69 2.58,-9.39 4.49,-13.86 1.51,-3.47 4.78,-9.92 9.22,-6.22 5.47,4.71 9.89,19.41 12.26,26.56 5.1,16.36 9.25,33.01 13.73,49.54 3.52,12.92 7.01,25.89 11.61,38.48 1.99,5.22 4.06,10.53 7.3,15.12 3.23,4.47 6.88,5.86 10.9,1.32 2.91,-3.32 4.88,-7.35 6.88,-11.25 3.42,-6.69 6.37,-13.76 11.06,-19.69 8.68,-10.64 15.34,-3.22 23.16,-6.85 7.98,-3.9 12.04,-20.64 14.29,-28.85 4.64,-18.01 7.52,-36.45 12.31,-54.43 2.72,-9.56 7.89,-27.53 15.99,-9.07 2.61,5.94 4.45,12.21 6.2,18.45 2.39,8.68 4.45,17.48 6.41,26.27 7.88,35.47 14.11,71.31 22.39,106.69 1.8,6.85 9.68,43.67 17.46,41.9 5.85,-1.3 9.97,-22.99 11.37,-28.69 3.15,-14.44 5.69,-29.02 8.95,-43.44 2.32,-9.84 4.58,-19.87 9.08,-28.99 3.25,-6.23 7.13,-10.46 14.73,-9.06 2.59,0.41 5.14,1.12 7.76,1.33 5.54,0.56 10.03,-1.92 14.1,-5.5 4.5,-3.74 9.59,-10.35 15.23,-11.71 6.61,-1.46 11.41,5.21 14.7,9.98 3.41,5.17 6.22,10.71 8.99,16.24 3.45,6.89 6.72,13.88 10.49,20.6 2.7,4.62 5.45,9.43 9.64,12.87 6.77,5.45 12.1,-0.92 15.69,-6.67 5.61,-9.21 9.44,-19.37 14.52,-28.86 3.36,-6.13 6.98,-12.55 12.86,-16.59 2.94,-2 6.52,-2.95 10.06,-2.85 3.13,0.06 6.21,0.71 9.25,1.39 3.14,0.71 6.29,1.45 9.47,1.94 4.21,0.68 8.48,0.9 12.74,0.82 6.17,-0.13 12.33,-0.64 18.5,-0.89 4.92,-0.23 9.85,-0.41 14.77,-0.68 4.76,-0.26 9.52,-0.62 14.28,-0.87"
           style="fill:none;stroke:#b5b9bc;stroke-width:2px;stroke-linejoin:round"
           id="path5" />
        <path
           d="m 477.74,238.88 c 6.43,-0.36 12.87,-0.56 19.31,-0.92 6.17,-0.33 12.34,-0.83 18.51,-1.01 7.43,-0.28 14.86,0.37 22.29,0.1 9.56,-0.35 16.45,-3.31 24.57,-7.96 5.51,-3.07 11.17,-6.46 17.57,-7.14 9.23,-1.05 17.3,4.3 25.6,7.41 4.22,1.62 8.72,2.6 13.26,2.48 4.2,-0.05 8.34,-0.91 12.53,-1.14 3.08,-0.18 6.22,0.08 9.17,1.02 5.27,1.63 9.7,5.02 14.16,8.15 3.28,2.2 6.79,4.83 10.89,4.93 6.16,-0.04 9.52,-7.1 11.68,-11.98 2.71,-6.46 4.54,-13.26 6.23,-20.05 3.6,-14.82 6.25,-29.86 9.25,-44.82 1.53,-7.65 3.11,-15.31 5.06,-22.86 1.37,-4.88 4.83,-19.24 10.14,-20.24 7.2,-1.26 14.51,25.03 16.46,30.89 3.72,12.23 6.99,24.61 10.33,36.95 3.29,12.12 6.56,24.27 10.46,36.21 2.67,7.83 5.28,15.86 9.8,22.85 3.7,5.46 7.71,7 12.36,1.46 4.24,-5.2 6.95,-11.42 10.33,-17.17 2.21,-3.78 4.53,-7.62 7.79,-10.6 9.13,-8.39 17.41,2.44 25.29,-6.1 6.26,-7 9.64,-22.28 11.88,-31.52 4.58,-19.7 7.35,-39.82 12.66,-59.35 1.75,-5.84 6.24,-21.8 12.97,-10.3 2.32,3.97 3.84,8.37 5.29,12.72 2.08,6.39 3.8,12.93 5.42,19.45 8.6,35.47 14.81,71.47 22.6,107.12 2.22,10.14 4.53,20.29 7.24,30.3 1.94,6.97 3.94,13.98 6.95,20.58 2.32,4.97 6.38,11.47 10.83,3.71 3.02,-5.46 4.52,-11.62 6.13,-17.61 3.63,-14.44 6.3,-29.11 9.74,-43.6 2.34,-9.51 4.64,-19.16 8.92,-28.01 3.02,-5.97 6.89,-10.89 14.26,-10.24 2.67,0.17 5.31,0.74 7.98,0.81 5.83,0.27 10.38,-2.65 14.43,-6.59 2.54,-2.43 4.85,-5.09 7.33,-7.58 1.98,-1.96 4.07,-3.92 6.61,-5.14 5.9,-2.94 10.82,1.58 14.26,6.1 3.42,4.51 6.1,9.52 8.7,14.53 4.14,8.06 7.86,16.34 12.13,24.33 2.97,5.34 5.97,10.96 10.62,15.02 6.59,5.58 11.86,0.24 15.72,-5.61 5.73,-8.87 9.61,-18.77 14.78,-27.96 4.94,-8.75 11.35,-18.7 22.57,-18.7 4.17,-0.07 8.28,0.85 12.37,1.58 4.16,0.77 8.36,1.36 12.59,1.52 7.29,0.28 14.56,-0.44 21.83,-0.78 5.27,-0.27 10.55,-0.45 15.82,-0.73 4.89,-0.25 9.78,-0.61 14.67,-0.87"
           style="fill:none;stroke:#b5b9bc;stroke-width:2px;stroke-linejoin:round"
           id="path6" />
        <path
           d="m 477.74,238.87 c 6.5,-0.38 13.01,-0.59 19.51,-0.94 5.96,-0.3 11.91,-0.78 17.88,-0.97 7.3,-0.3 14.6,0.31 21.9,0.39 10.56,0.1 17.54,-2.51 26.49,-7.72 4.82,-2.74 9.64,-5.75 15.06,-7.13 2.77,-0.71 5.67,-0.9 8.51,-0.54 3.29,0.4 6.45,1.47 9.51,2.71 6.61,2.72 13.13,6.19 20.38,6.74 5.63,0.55 11.21,-0.79 16.83,-0.77 9.28,-0.06 15.72,5.42 22.5,10.95 7.66,6.23 14.21,10.21 20.38,-0.2 2.28,-3.87 3.81,-8.14 5.19,-12.4 1.78,-5.63 3.2,-11.38 4.5,-17.14 3.42,-15.3 6.02,-30.78 9.01,-46.17 1.68,-8.58 3.39,-17.17 5.72,-25.6 0.87,-3.08 1.82,-6.17 3.05,-9.14 0.89,-2.11 1.89,-4.25 3.42,-5.97 6.81,-7.65 13.57,13.22 15.32,17.74 3.58,10.12 6.49,20.48 9.38,30.81 5.23,18.6 9.9,37.4 16.29,55.64 2.06,5.66 4.22,11.36 7.37,16.52 2.7,4.33 6.69,8.64 11.67,4.44 3.04,-2.6 5.11,-6.11 7.23,-9.46 1.95,-3.16 3.82,-6.38 5.95,-9.42 1.65,-2.34 3.45,-4.64 5.69,-6.45 8.02,-6.4 14.22,0.5 21.41,-1.42 7.86,-2.26 11.67,-17.43 13.7,-24.59 2.79,-10.68 4.81,-21.56 6.83,-32.4 3.04,-15.88 5.35,-31.98 9.95,-47.51 1.42,-4.31 5.05,-15.99 10.56,-8.96 1.97,2.58 3.24,5.65 4.43,8.65 1.76,4.56 3.18,9.27 4.51,13.97 4.02,14.47 7.16,29.19 10.27,43.89 4.24,20.26 8.18,40.61 12.41,60.87 3.96,18.47 7.73,37.07 13.55,55.06 5.9,17.49 11.93,25.08 18.91,2.2 4.67,-15.48 7.54,-31.45 11.65,-47.08 1.4,-5.35 2.9,-10.69 4.77,-15.89 1.5,-4.09 3.19,-8.17 5.63,-11.79 7.84,-11.36 15.18,-4.04 24.84,-7.27 5.89,-2.12 9.95,-7.26 13.94,-11.83 2.89,-3.28 5.68,-6.84 9.5,-9.09 7.37,-4.36 13.27,3.37 16.94,8.95 6.55,10.31 11.21,21.67 16.75,32.53 1.87,3.69 3.82,7.37 6.02,10.88 1.76,2.77 3.66,5.5 6.06,7.75 6.23,5.88 11.39,2.48 15.83,-3.64 6.14,-8.72 10.14,-18.71 15.61,-27.84 4.98,-8.36 11.34,-17.18 21.99,-17.53 4.14,-0.2 8.26,0.54 12.34,1.12 4.1,0.61 8.22,1.06 12.36,1.14 7.09,0.15 14.16,-0.54 21.23,-0.87 5.19,-0.27 10.38,-0.45 15.57,-0.72 4.69,-0.24 9.38,-0.57 14.08,-0.82"
           style="fill:none;stroke:#b5b9bc;stroke-width:2px;stroke-linejoin:round"
           id="path7" />
        <path
           d="m 477.74,238.86 c 6.64,-0.41 13.28,-0.63 19.92,-0.97 5.83,-0.29 11.65,-0.74 17.48,-0.93 3.75,-0.12 7.51,-0.09 11.25,0.08 3.84,0.16 7.67,0.48 11.51,0.57 11.13,0.36 18.13,-2.24 27.5,-7.81 4.68,-2.71 9.35,-5.67 14.61,-7.12 6.99,-2 13.49,-0.11 19.95,2.64 5.63,2.37 11.28,5.05 17.43,5.73 5.06,0.65 10.12,-0.21 15.18,-0.41 6.67,-0.31 11.97,1.71 17.2,5.72 3.16,2.38 6.01,5.14 8.94,7.79 3.14,2.75 6.94,6.43 11.25,6.97 8.97,1.06 13.61,-17.38 15.56,-24.14 5.41,-20.74 8.43,-42 12.47,-63.02 1.39,-7.32 2.85,-14.66 4.68,-21.89 1.33,-5.04 2.7,-10.15 5.06,-14.83 3,-5.84 6.46,-6.72 10.37,-0.92 3.13,4.75 5.11,10.16 7.07,15.47 4.28,12.08 7.67,24.46 11.15,36.79 3.73,13.3 7.35,26.66 11.68,39.78 2.04,6.11 4.21,12.21 7.02,18.02 2.06,4.02 5.96,11.87 11.41,10.8 4.61,-1.04 8.62,-7.9 11.29,-11.6 2.63,-3.78 5.2,-7.72 8.78,-10.68 3.74,-3.11 7.65,-3.49 12.19,-2.08 2.4,0.69 4.73,1.67 7.2,2.04 4.49,0.76 7.66,-1.77 9.95,-5.38 2.66,-4.22 4.26,-9.03 5.71,-13.78 3.49,-11.97 5.65,-24.29 7.85,-36.56 2.86,-16.04 5.22,-32.2 8.86,-48.09 5.07,-21.68 10.73,-28.51 19.07,-2.63 4.36,13.74 7.46,27.87 10.55,41.94 4.25,19.67 8.11,39.44 12.16,59.15 3.93,18.93 7.81,37.93 13.01,56.56 1.27,4.44 2.63,8.9 4.26,13.22 1.22,3.16 2.53,6.34 4.42,9.16 5.1,7.59 8.95,0.64 11.24,-4.86 2.56,-6.31 4.29,-12.93 6.03,-19.51 2.43,-9.38 4.64,-18.84 7.24,-28.18 1.38,-4.9 2.85,-9.79 4.66,-14.55 1.43,-3.7 3.03,-7.38 5.24,-10.7 3.74,-5.56 7.69,-7.57 14.41,-7.29 3.34,0.09 6.78,0.19 9.95,-1 5.39,-1.98 9.22,-6.58 12.75,-10.9 7.63,-9.31 15.08,-21.93 26.05,-7.74 3.46,4.47 6.14,9.49 8.71,14.51 3.41,6.71 6.53,13.58 9.85,20.33 1.96,3.98 3.98,7.94 6.25,11.75 1.77,2.95 3.69,5.87 6.05,8.39 5.64,6.03 10.78,5.2 16,-1.19 2.93,-3.59 5.24,-7.64 7.5,-11.66 3.07,-5.49 5.96,-11.1 9.34,-16.41 4.93,-7.76 11.16,-15.34 21.02,-16.02 4.12,-0.35 8.25,0.23 12.34,0.68 4.02,0.47 8.07,0.81 12.12,0.83 7.01,0.05 14,-0.62 21,-0.96 5.06,-0.27 10.12,-0.45 15.18,-0.7 4.49,-0.22 8.97,-0.52 13.46,-0.76"
           style="fill:none;stroke:#b5b9bc;stroke-width:2px;stroke-linejoin:round"
           id="path8" />
        <path
           d="m 477.74,238.84 c 6.92,-0.45 13.85,-0.67 20.77,-1.02 6.03,-0.29 12.05,-0.76 18.09,-0.91 3.83,-0.09 7.66,-0.01 11.49,0.23 3.9,0.23 7.8,0.63 11.7,0.77 11.41,0.53 18.41,-2.33 27.91,-8.11 4.71,-2.79 9.46,-5.8 14.84,-7.13 7.06,-1.83 13.7,0.39 20.16,3.13 5.19,2.17 10.46,4.44 16.11,5.06 5.13,0.66 10.27,-0.23 15.41,-0.26 6.85,-0.1 12.21,2.54 17.28,6.93 3.28,2.8 6.21,5.98 9.23,9.06 3.08,3.02 6.89,7.17 11.25,8.09 8.96,1.81 13.58,-16.85 15.46,-23.37 5.46,-21.17 8.43,-42.89 12.38,-64.37 1.3,-7.17 2.65,-14.35 4.29,-21.45 1.25,-5.28 2.58,-10.59 4.58,-15.64 4.81,-12.05 9.68,-8.83 14.45,1.05 4.12,8.74 6.92,18.03 9.77,27.24 4.49,14.89 8.51,29.93 13.04,44.81 2.88,8.88 10.78,37.13 19.62,39.87 5.39,1.77 10.31,-5.79 13.27,-9.38 2.62,-3.31 5.19,-6.79 8.66,-9.26 7.34,-5.08 12.68,0.11 19.71,2.11 4.37,1.21 7.57,-0.82 9.96,-4.4 2.74,-4.14 4.32,-8.93 5.76,-13.64 3.52,-12.16 5.64,-24.69 7.77,-37.15 2.79,-16.54 5.12,-33.19 8.41,-49.64 0.89,-4.34 1.85,-8.71 3.07,-12.97 0.91,-3.1 1.9,-6.24 3.48,-9.08 5.18,-9.2 10.14,4.04 11.9,8.66 4.63,12.92 7.62,26.39 10.68,39.75 4.38,19.67 8.27,39.46 12.33,59.2 3.96,19.13 7.86,38.3 12.88,57.19 2.19,7.9 4.4,15.88 7.91,23.32 3.28,6.75 7.45,11.07 12.19,2.1 2.68,-5.15 4.34,-10.77 6.01,-16.3 2.22,-7.55 4.17,-15.18 6.31,-22.76 1.56,-5.52 3.19,-11.04 5.16,-16.43 1.58,-4.26 3.33,-8.51 5.77,-12.36 3.38,-5.31 7.28,-8.19 13.76,-8.28 3.26,-0.11 6.58,0.05 9.73,-0.94 5.23,-1.6 9.08,-5.82 12.39,-9.98 3.38,-4.25 6.31,-8.86 9.94,-12.91 4.91,-5.49 10,-7.69 15.95,-1.75 2.5,2.49 4.48,5.45 6.3,8.45 2.37,3.93 4.46,8.03 6.48,12.15 3.48,7.1 6.73,14.32 10.3,21.38 2.69,5.22 5.46,10.47 9.16,15.05 4.87,5.99 10.22,8.34 16.37,1.91 3.25,-3.39 5.7,-7.45 8.11,-11.45 3.22,-5.41 6.23,-10.97 9.76,-16.19 4.78,-7.11 10.86,-13.93 19.85,-15.03 4.15,-0.57 8.35,-0.16 12.5,0.18 4.11,0.36 8.23,0.63 12.35,0.6 6.87,-0.04 13.72,-0.69 20.58,-1.03 9.26,-0.44 18.52,-0.83 27.78,-1.4"
           style="fill:none;stroke:#b5b9bc;stroke-width:2px;stroke-linejoin:round"
           id="path9" />
        <path
           d="m 477.74,238.84 c 7.2,-0.48 14.41,-0.72 21.61,-1.07 6.23,-0.29 12.45,-0.78 18.69,-0.89 3.9,-0.07 7.81,0.07 11.7,0.38 3.98,0.31 7.94,0.79 11.92,1 12.03,0.73 19.05,-2.63 28.93,-8.76 4.72,-2.85 9.59,-5.81 15.08,-6.85 7,-1.42 13.83,1.26 20.2,3.89 4.3,1.75 8.7,3.44 13.33,4.08 2.78,0.4 5.59,0.43 8.39,0.29 3.04,-0.14 6.1,-0.45 9.15,-0.26 6.91,0.31 12.38,4 17.13,8.74 3.29,3.24 6.23,6.82 9.3,10.27 2.95,3.21 6.6,7.57 10.89,8.84 5.06,1.39 8.32,-3.82 10.22,-7.7 2.43,-5.08 4,-10.54 5.43,-15.98 5.29,-21.19 8.19,-42.88 11.98,-64.37 2.29,-12.69 4.34,-25.53 8.38,-37.81 2.88,-8.33 7.23,-15.84 13.71,-4.59 4.41,7.9 7.09,16.63 9.91,25.19 4.73,14.94 8.83,30.08 13.45,45.05 3.02,9.23 10.95,37.26 19.87,40.57 5.39,2.09 10.31,-4.67 13.57,-8.11 2.65,-2.9 5.33,-6 8.93,-7.74 7.35,-3.53 13.32,3.15 19.88,5.29 4.51,1.48 7.7,-1.01 9.98,-4.73 2.7,-4.44 4.24,-9.48 5.66,-14.45 3.33,-12.29 5.37,-24.9 7.4,-37.46 2.67,-16.75 4.92,-33.58 7.94,-50.27 1.52,-7.95 2.97,-16 5.81,-23.6 4.22,-10.94 8.43,-6.53 12.01,1.91 5.02,12.39 7.9,25.54 10.99,38.51 4.42,19.34 8.29,38.82 12.3,58.24 3.99,19.23 7.92,38.51 12.86,57.53 2.18,8.16 4.44,16.37 7.76,24.15 2.2,5.01 6.81,14.26 12.21,6.43 1.88,-2.71 3.15,-5.81 4.34,-8.87 1.61,-4.24 2.97,-8.59 4.29,-12.93 2.35,-7.73 4.53,-15.52 7.11,-23.17 1.98,-5.74 4.1,-11.5 7.23,-16.73 2.99,-4.95 6.83,-8.7 12.87,-9.22 3.03,-0.33 6.1,-0.14 9.1,-0.75 5.37,-0.98 9.58,-4.88 12.88,-9.01 3.5,-4.35 6.41,-9.14 9.71,-13.63 3.79,-5.12 9.45,-12.09 16.26,-7.26 2.84,2.01 4.96,4.87 6.88,7.73 2.59,3.94 4.79,8.13 6.9,12.34 3.56,7.13 6.82,14.42 10.33,21.57 2.75,5.53 5.58,11.08 9.2,16.11 4.2,5.79 9.9,10.95 16.75,5.04 2.29,-1.94 4.15,-4.35 5.88,-6.79 2.18,-3.1 4.16,-6.35 6.15,-9.57 3.06,-4.95 6.12,-9.95 9.86,-14.43 4.11,-5 9.41,-9.15 15.95,-10.2 4.18,-0.74 8.45,-0.47 12.66,-0.24 4.11,0.25 8.23,0.44 12.34,0.36 6.79,-0.11 13.57,-0.75 20.35,-1.09 8.92,-0.43 17.85,-0.78 26.77,-1.32"
           style="fill:none;stroke:#b5b9bc;stroke-width:2px;stroke-linejoin:round"
           id="path10" />
        <path
           d="m 477.74,238.83 c 7.47,-0.52 14.96,-0.77 22.44,-1.12 6.38,-0.29 12.75,-0.79 19.14,-0.86 4.03,-0.04 8.07,0.16 12.08,0.56 4.06,0.39 8.11,0.97 12.18,1.25 12.78,0.96 19.76,-3.06 30.13,-9.52 4.71,-2.86 9.71,-5.69 15.27,-6.35 7.73,-0.99 14.89,2.67 21.95,5.24 3.68,1.35 7.5,2.41 11.41,2.73 5.69,0.56 11.42,-0.7 17.1,0.06 6.9,0.85 12.38,5.61 16.82,10.63 3.23,3.62 6.13,7.51 9.16,11.29 2.89,3.46 6.6,8.33 10.95,9.87 5.24,1.71 8.52,-3.98 10.39,-7.97 2.4,-5.27 3.95,-10.9 5.36,-16.5 5.08,-21.2 7.93,-42.85 11.59,-64.32 2.17,-12.57 4.2,-25.24 7.79,-37.5 1.43,-4.4 5.21,-17.47 11.48,-11.51 2.33,2.3 3.82,5.31 5.24,8.23 2.13,4.53 3.86,9.26 5.5,13.99 5.53,16.16 9.98,32.67 15.15,48.94 2.45,7.68 4.98,15.35 8.1,22.78 2.35,5.3 6.98,16.43 13.42,17.11 7.51,0.61 13.62,-12.56 21.97,-13.7 7.71,-1.1 13.26,7.01 20.08,8.96 4.8,1.37 7.96,-2.87 9.86,-6.66 2.41,-4.87 3.88,-10.15 5.21,-15.39 3.12,-12.8 5.11,-25.85 7.08,-38.86 2.52,-16.84 4.68,-33.74 7.53,-50.52 1.43,-8.08 2.87,-16.23 5.39,-24.05 2.82,-8.53 6.62,-13.03 11.75,-2.21 2.26,4.8 3.87,9.9 5.39,14.97 2.16,7.33 4,14.79 5.76,22.22 4.53,19.41 8.45,38.97 12.51,58.48 3.99,19.09 7.92,38.23 12.83,57.11 2.15,8.03 4.38,16.1 7.56,23.8 2.03,4.74 6.8,15.4 12.49,8.22 1.81,-2.27 3.05,-4.94 4.21,-7.58 1.58,-3.7 2.91,-7.52 4.19,-11.33 2.34,-6.97 4.49,-14.02 7.01,-20.93 1.93,-5.23 3.99,-10.46 6.9,-15.23 2.69,-4.45 6.45,-8.4 11.81,-9.24 2.74,-0.5 5.54,-0.39 8.29,-0.72 5.93,-0.57 10.27,-3.94 13.94,-8.46 3.69,-4.51 6.63,-9.58 9.84,-14.43 3.37,-4.89 8.92,-14.02 15.86,-11.29 7.69,3.04 14.87,19.47 18.53,26.81 4.91,10.15 9.29,20.63 15.38,30.15 3.76,5.73 9.9,13.51 17.32,8.45 2.41,-1.6 4.34,-3.82 6.13,-6.07 2.22,-2.85 4.21,-5.88 6.2,-8.89 3.12,-4.72 6.2,-9.51 9.89,-13.82 4.05,-4.79 9.26,-8.9 15.52,-10.17 4.22,-0.93 8.58,-0.8 12.87,-0.66 4.17,0.15 8.35,0.28 12.52,0.16 6.66,-0.18 13.3,-0.8 19.96,-1.13 8.64,-0.43 17.29,-0.74 25.92,-1.26"
           style="fill:none;stroke:#b5b9bc;stroke-width:2px;stroke-linejoin:round"
           id="path11" />
        <path
           d="m 477.74,238.82 c 7.61,-0.55 15.23,-0.81 22.85,-1.15 6.24,-0.27 12.48,-0.76 18.73,-0.85 4.18,-0.06 8.36,0.14 12.52,0.59 4.27,0.45 8.51,1.17 12.78,1.57 12.53,1.29 19.53,-2.2 29.77,-8.68 4.64,-2.86 9.44,-5.81 14.87,-6.86 7.76,-1.61 15.2,1.81 22.34,4.41 3.74,1.36 7.61,2.46 11.58,2.81 5.7,0.6 11.44,-0.67 17.13,0.07 5.36,0.64 10.03,3.79 13.72,7.59 6.34,6.47 10.95,14.35 16.59,21.4 2.68,3.2 7.14,8.8 11.83,7.35 7.95,-2.6 12.3,-26.14 14.04,-33.97 2.68,-13.2 4.74,-26.54 6.84,-39.84 1.94,-12.25 3.81,-24.53 6.16,-36.71 1.37,-6.34 5.59,-31.16 12.44,-31.79 5.55,-0.41 10.73,14.45 12.51,18.87 2.82,7.56 5.26,15.27 7.66,22.97 4.14,13.28 8.02,26.66 12.75,39.74 1.78,4.86 3.68,9.7 5.98,14.34 1.64,3.23 3.43,6.46 5.94,9.1 2.14,2.29 5.11,3.8 8.27,2.75 2.19,-0.68 4.06,-2.08 5.85,-3.47 2.48,-1.94 4.83,-4.09 7.62,-5.58 3.36,-1.87 6.97,-1.93 10.41,-0.15 3.87,1.96 6.98,5.08 10.4,7.7 5.84,4.61 10.27,5.09 14.3,-2.11 2.92,-5.38 4.45,-11.39 5.92,-17.3 2.03,-8.56 3.51,-17.25 4.88,-25.93 2.51,-16.1 4.54,-32.29 6.8,-48.43 1.67,-11.76 3.34,-23.55 5.83,-35.17 1.08,-4.34 4.49,-22.1 10.28,-18.08 1.26,0.92 2.14,2.28 2.92,3.61 1.22,2.13 2.19,4.43 3.07,6.72 2.43,6.43 4.28,13.08 6.04,19.72 6.13,23.81 10.84,47.97 15.95,72.01 v 0 c 2.97,14.08 5.96,28.17 9.35,42.16 2.57,10.46 5.23,20.95 8.94,31.08 9.86,26.71 16.45,11.27 22.81,-6.09 2.45,-6.69 4.72,-13.45 7.49,-20.02 2.09,-4.85 4.36,-9.74 7.78,-13.81 4.43,-5.18 8.64,-5.87 15.1,-6.09 3.43,-0.14 6.93,-0.79 9.87,-2.67 6.31,-4.03 10.42,-11.54 14.29,-17.79 2.95,-4.79 5.7,-9.82 9.66,-13.87 4.89,-4.93 9.48,-4.19 14.02,0.71 3.55,3.88 6.14,8.53 8.62,13.14 3.26,6.18 6.17,12.54 9.16,18.86 3.05,6.43 6.09,12.89 9.74,19.01 3.22,5.19 8.79,14.15 15.91,12.63 6.67,-1.44 13.03,-12.12 16.99,-17.48 6.58,-9.27 13.67,-18.95 25.78,-20.49 3.78,-0.55 7.62,-0.47 11.43,-0.42 3.75,0.06 7.51,0.09 11.27,-0.04 6.58,-0.24 13.15,-0.84 19.73,-1.17 8.3,-0.41 16.6,-0.69 24.89,-1.18"
           style="fill:none;stroke:#b5b9bc;stroke-width:2px;stroke-linejoin:round"
           id="path12" />
        <path
           d="m 477.74,238.82 c 8.16,-0.6 16.34,-0.87 24.52,-1.24 6.86,-0.3 13.72,-0.87 20.59,-0.78 4.14,0.05 8.26,0.41 12.36,0.99 4.26,0.59 8.5,1.4 12.79,1.78 13.48,1.3 20.55,-4.04 31.33,-10.64 5.12,-3.11 10.9,-5.71 17.02,-5.35 7.12,0.32 13.54,3.74 20.3,5.63 3.48,1.01 7.1,1.58 10.73,1.59 5.96,0.08 12.17,-1.32 17.93,0.81 6.9,2.56 11.6,8.65 15.8,14.4 3.24,4.53 6.17,9.27 9.3,13.87 2.75,3.89 6.26,9.29 10.58,11.45 5.24,2.52 8.68,-3.53 10.47,-7.55 2.41,-5.48 3.93,-11.32 5.33,-17.13 4.88,-21.39 7.65,-43.19 11.13,-64.84 2.07,-12.83 4.08,-25.71 7.32,-38.3 1.96,-6.98 6.65,-25.07 14.96,-12.1 2.56,3.99 4.38,8.41 6.12,12.79 2.25,5.79 4.24,11.7 6.17,17.61 3.45,10.58 6.67,21.24 10.22,31.78 2.65,7.8 5.39,15.61 8.94,23.05 2.45,4.85 6.54,13.1 12.6,13.63 7.72,0.39 13.51,-10.6 22.51,-7.8 8.09,2.29 15.62,15.93 22.54,15.58 7.49,-0.4 11.15,-18.72 12.63,-24.84 2.5,-11.48 4.22,-23.13 5.85,-34.76 2.63,-18.89 4.8,-37.86 7.57,-56.74 1.38,-9.15 2.81,-18.34 5.03,-27.34 1.43,-5.45 5.35,-20.91 11.75,-10.05 2.56,4.41 4.17,9.32 5.74,14.15 2.28,7.24 4.17,14.63 5.97,22 4.83,20.03 8.95,40.24 13.26,60.39 3.92,18.23 7.79,36.5 12.72,54.49 2.15,7.63 4.38,15.3 7.65,22.53 2.28,4.9 6.82,13.4 12.45,6.7 1.84,-2.16 3.15,-4.71 4.39,-7.24 1.57,-3.27 2.94,-6.64 4.28,-10.01 3.86,-9.26 9.29,-26.02 17.67,-31.46 3.01,-2.05 6.75,-2.48 10.3,-2.57 3.01,-0.1 6.09,-0.29 8.89,-1.5 6.26,-2.73 10.1,-8.87 13.58,-14.45 2.55,-4.22 4.88,-8.58 7.44,-12.8 2.74,-4.32 6.99,-11.52 12.55,-11.69 6.59,-0.05 12.09,10.21 14.95,15.19 3.22,5.87 6.04,11.96 8.9,18.01 3.18,6.74 6.33,13.52 10.02,20 2.67,4.53 5.48,9.19 9.64,12.51 8.57,6.77 15.73,-2.86 20.76,-9.19 6.78,-8.6 13.14,-18.89 24.02,-22.59 4.44,-1.52 9.2,-1.73 13.86,-1.77 4.59,-0.03 9.18,0.01 13.76,-0.21 5.54,-0.24 11.07,-0.72 16.61,-1.04 8.84,-0.51 17.7,-0.73 26.54,-1.26"
           style="fill:none;stroke:#b5b9bc;stroke-width:2px;stroke-linejoin:round"
           id="path13" />
        <path
           d="m 477.74,238.82 c 8.51,-0.64 17.03,-0.92 25.55,-1.29 7.07,-0.3 14.14,-0.91 21.22,-0.75 4.22,0.1 8.42,0.54 12.58,1.23 4.34,0.69 8.64,1.63 13.01,2.06 11.5,1.25 18.61,-2.69 27.91,-8.63 3.74,-2.34 7.55,-4.7 11.77,-6.1 3.38,-1.14 7.01,-1.49 10.55,-1.03 6.67,0.86 12.77,3.97 19.29,5.45 3.36,0.79 6.82,1.1 10.27,0.98 3.47,-0.09 6.93,-0.58 10.4,-0.45 2.68,0.09 5.37,0.66 7.79,1.85 8.5,4.17 14.68,15.06 19.59,22.94 3.14,5.13 6.12,10.39 9.76,15.18 4.74,6.18 9.97,9.96 14.86,1.46 3.03,-5.42 4.62,-11.51 6.16,-17.48 2.14,-8.74 3.74,-17.63 5.24,-26.5 2.57,-15.36 4.72,-30.8 7.15,-46.18 1.8,-11.24 3.62,-22.5 6.33,-33.56 1.53,-5.59 6.07,-25.81 14.17,-15.73 2.72,3.43 4.5,7.5 6.24,11.49 2.44,5.79 4.53,11.75 6.55,17.7 3.38,9.98 6.53,20.06 9.96,30.03 2.66,7.65 5.4,15.3 8.92,22.6 2.53,4.98 6.56,13.01 12.62,13.96 7.94,0.94 13.77,-9.53 23.09,-4.82 3.94,2.05 6.91,5.47 9.85,8.71 3.08,3.26 8.63,10.84 13.47,10.2 7.66,-0.97 11.4,-22.58 12.83,-29.2 2.45,-12.71 4.18,-25.57 5.84,-38.41 2.38,-18.4 4.42,-36.86 7.06,-55.23 1.28,-8.73 2.63,-17.49 4.66,-26.08 1.22,-4.6 4.77,-20.81 11,-12.4 2.92,4.19 4.51,9.16 6.16,13.95 2.39,7.32 4.34,14.8 6.19,22.26 5.11,20.84 9.41,41.88 13.99,62.83 3.78,17.21 7.54,34.46 12.36,51.42 2.11,7.18 4.3,14.4 7.56,21.15 2.29,4.64 6.62,11.86 12.01,6.08 2.58,-2.78 4.27,-6.25 5.94,-9.63 2.23,-4.65 4.21,-9.43 6.36,-14.11 3.09,-6.53 6.82,-14.84 12.94,-18.96 8.15,-5.24 15.75,0.64 24.25,-6.7 4.71,-4.12 7.81,-9.69 10.85,-15.08 2.28,-4.11 4.43,-8.3 6.83,-12.35 2.58,-4.16 6.37,-10.63 11.51,-11.35 6.28,-0.7 11.42,8.19 14.2,12.76 5.78,10.04 10.25,20.76 15.44,31.11 2.8,5.57 5.69,11.16 9.4,16.19 3.39,4.6 8.63,9.82 14.79,7.16 2.54,-1.05 4.66,-2.9 6.59,-4.82 2.32,-2.34 4.42,-4.9 6.51,-7.45 8.04,-9.84 15.12,-18.57 28.74,-19.81 3.53,-0.38 7.08,-0.39 10.62,-0.45 3.6,-0.05 7.2,-0.15 10.8,-0.35 6.03,-0.34 12.04,-0.85 18.07,-1.14 7.53,-0.37 15.08,-0.59 22.61,-1.03"
           style="fill:none;stroke:#b5b9bc;stroke-width:2px;stroke-linejoin:round"
           id="path14" />
        <path
           d="m 477.74,238.82 c 8.85,-0.68 17.73,-0.97 26.6,-1.35 7.27,-0.3 14.55,-0.96 21.84,-0.71 4.3,0.15 8.57,0.69 12.8,1.48 4.47,0.82 8.91,1.89 13.44,2.37 11.27,1.3 18.41,-2.8 27.49,-8.61 8.1,-5.16 15.02,-8.79 24.85,-6.64 6.09,1.27 11.82,3.92 17.98,4.91 3.17,0.54 6.41,0.6 9.61,0.37 3.39,-0.22 6.79,-0.73 10.19,-0.49 2.92,0.19 5.78,1.08 8.27,2.62 8.2,5.14 14.27,16.73 19.06,25.05 3.54,6.22 6.83,12.64 11.19,18.33 6.89,8.9 11.61,6.03 15.46,-3.2 2.39,-5.83 3.89,-11.99 5.27,-18.13 1.85,-8.39 3.31,-16.88 4.68,-25.36 2.4,-14.9 4.46,-29.86 6.79,-44.77 1.75,-11.04 3.53,-22.11 6.15,-32.99 1.31,-4.79 5.55,-24.34 13.01,-17.65 2.92,2.75 4.66,6.49 6.39,10.05 2.58,5.59 4.71,11.39 6.77,17.19 3.46,9.77 6.64,19.65 10.11,29.42 2.58,7.22 5.25,14.44 8.62,21.33 2.63,5.12 6.69,13.06 12.86,14.21 8.03,1.18 13.81,-8.4 23.24,-2.05 3.99,2.76 6.96,6.7 9.95,10.46 1.82,2.33 3.62,4.7 5.58,6.92 2.18,2.35 5.29,5.81 8.81,5.12 7.77,-1.68 11.58,-26.63 12.99,-33.88 2.41,-13.97 4.15,-28.06 5.85,-42.13 2.14,-17.71 4.06,-35.46 6.55,-53.12 1.23,-8.5 2.53,-17.03 4.47,-25.41 1.08,-4.12 4.37,-19.6 10.12,-13.72 1.37,1.45 2.33,3.26 3.21,5.03 1.3,2.71 2.36,5.57 3.34,8.41 2.63,7.73 4.71,15.66 6.7,23.57 5.66,22.85 10.35,45.93 15.55,68.88 3.42,15.03 6.88,30.08 11.37,44.83 1.95,6.19 4,12.43 7.01,18.2 2.26,4.26 6.3,10.2 11.36,5.51 2.01,-1.85 3.47,-4.22 4.84,-6.56 1.77,-3.09 3.33,-6.31 4.91,-9.5 3.64,-7.13 8.19,-17.58 15.3,-21.61 1.82,-1.02 3.87,-1.59 5.94,-1.77 2.29,-0.22 4.6,-0.06 6.9,-0.09 2.91,-0.01 5.87,-0.52 8.41,-1.98 5.17,-2.99 8.44,-8.28 11.4,-13.3 2.75,-4.79 5.16,-9.78 7.76,-14.66 2.75,-4.96 7,-13.47 12.52,-15.22 7.22,-2.16 13.47,9.54 16.43,14.63 3.55,6.42 6.64,13.1 9.8,19.71 3.33,6.94 6.63,13.92 10.67,20.49 3.59,5.6 9.27,14.21 16.91,12.35 2.19,-0.55 4.14,-1.8 5.89,-3.2 2.08,-1.68 3.95,-3.63 5.76,-5.6 8.93,-9.87 15.99,-19.4 30.33,-20.92 3.52,-0.43 7.08,-0.5 10.62,-0.59 3.53,-0.08 7.06,-0.2 10.59,-0.41 5.96,-0.35 11.92,-0.85 17.89,-1.14 7.32,-0.36 14.65,-0.56 21.97,-0.98"
           style="fill:none;stroke:#b5b9bc;stroke-width:2px;stroke-linejoin:round"
           id="path15" />
        <path
           d="m 477.74,238.82 c 9.19,-0.72 18.4,-1.01 27.61,-1.4 7.43,-0.31 14.86,-1.01 22.29,-0.7 4.44,0.18 8.85,0.83 13.2,1.74 4.56,0.94 9.08,2.14 13.71,2.68 10.27,1.29 17.29,-2.21 25.65,-7.56 4.09,-2.56 8.18,-5.25 12.76,-6.85 5.42,-1.96 10.98,-1.61 16.45,-0.12 5.13,1.35 10.15,3.26 15.45,3.88 2.83,0.35 5.69,0.31 8.52,0.05 2.9,-0.25 5.79,-0.72 8.7,-0.77 4.02,-0.13 8.04,1.06 11.25,3.5 8.01,6.03 14.03,18.41 18.76,27.26 3.36,6.37 6.54,12.88 10.58,18.86 5.43,7.92 10.63,10.61 15.45,0.39 2.7,-5.86 4.23,-12.19 5.69,-18.45 1.94,-8.65 3.44,-17.41 4.85,-26.16 2.45,-15.36 4.55,-30.8 6.92,-46.17 1.75,-11.16 3.53,-22.35 6.16,-33.34 1.2,-4.52 4.68,-20.27 10.63,-19.3 6.11,1.11 12.42,19.55 14.69,25.28 6.02,15.98 10.84,32.47 18.17,47.92 2.74,5.38 6.86,13.56 13.14,15.16 8.24,1.79 14.12,-7.47 23.79,0.69 4.12,3.55 7.16,8.15 10.27,12.57 2.84,3.86 9.1,14.52 14.29,13.9 5.66,-0.69 8.58,-13.08 9.86,-17.83 1.89,-7.63 3.21,-15.41 4.41,-23.17 2.59,-17.09 4.47,-34.3 6.43,-51.48 1.75,-15.39 3.44,-30.81 5.66,-46.14 0.98,-5.55 5.15,-40.33 12.63,-36.35 5.78,3.16 11.23,25.38 13.18,32.3 5.75,22.06 10.38,44.41 15.47,66.63 3.53,15.36 7.08,30.76 11.63,45.86 1.97,6.36 4.06,12.74 7.02,18.71 2.1,4.08 6.11,11.15 11.46,7.46 1.57,-1.09 2.81,-2.6 3.94,-4.13 1.4,-1.94 2.64,-4.02 3.83,-6.09 3.25,-5.66 6.14,-11.58 10.17,-16.74 12.37,-15.98 22.32,0.94 34.64,-14.52 5.4,-6.9 8.82,-15.07 12.78,-22.82 2.41,-4.71 4.79,-9.53 8.2,-13.61 2.38,-2.86 5.94,-5.38 9.84,-3.55 5.13,2.42 9.05,9.44 11.8,14.18 4.99,9.01 9.12,18.46 13.76,27.65 2.52,4.99 5.14,9.96 8.29,14.59 3.15,4.46 7.37,9.99 13.26,10.2 2.59,0.06 5.06,-1.08 7.16,-2.52 2.32,-1.58 4.38,-3.53 6.36,-5.51 8.62,-8.75 15.6,-17.24 28.61,-19.1 3.56,-0.56 7.17,-0.69 10.77,-0.83 3.47,-0.12 6.93,-0.24 10.4,-0.44 6.16,-0.36 12.32,-0.88 18.48,-1.19 7.12,-0.36 14.25,-0.54 21.37,-0.94"
           style="fill:none;stroke:#b5b9bc;stroke-width:2px;stroke-linejoin:round"
           id="path16" />
        <path
           d="m 477.74,238.83 c 9.54,-0.75 19.1,-1.06 28.66,-1.46 7.62,-0.32 15.25,-1.09 22.87,-0.69 4.54,0.23 9.04,0.98 13.46,2.01 4.63,1.05 9.21,2.39 13.93,2.98 11.74,1.59 19.06,-3.47 28.45,-9.39 4.45,-2.76 9.22,-5.36 14.48,-6.04 5.04,-0.71 10.07,0.48 14.9,1.83 4.55,1.27 9.16,2.55 13.91,2.66 10.33,0.35 18.48,-4.86 27.48,3.07 3.74,3.28 6.57,7.47 9.14,11.69 3.42,5.7 6.36,11.69 9.28,17.66 3.33,6.76 6.49,13.64 10.48,20.04 4.98,7.89 10.55,12.76 15.72,1.72 2.7,-5.84 4.21,-12.16 5.65,-18.4 1.94,-8.74 3.44,-17.59 4.85,-26.43 2.39,-15.14 4.44,-30.34 6.75,-45.5 1.74,-11.27 3.52,-22.57 6.1,-33.68 1.25,-4.85 4.52,-20 10.17,-20.5 4.41,-0.2 8.25,8.18 9.99,11.62 6.01,12.94 10.29,26.6 15.47,39.88 1.99,5.15 4.07,10.29 6.46,15.27 1.83,3.76 3.82,7.5 6.41,10.8 10.34,13.14 17.36,-0.56 27.85,5.84 2.3,1.43 4.2,3.41 5.92,5.48 2.15,2.62 4.04,5.46 5.86,8.31 2.21,3.46 4.31,6.99 6.57,10.41 2.2,3.15 6,9.2 10.1,9.42 7.06,0.21 10.56,-19.83 11.79,-25.42 2.25,-11.51 3.78,-23.16 5.23,-34.79 2.9,-23.6 5.12,-47.29 8.06,-70.89 1.22,-8.35 5.31,-47.74 12.58,-49.39 5.3,-1.15 10.4,17.14 11.76,21.22 2.66,8.77 4.9,17.69 7.07,26.59 5.39,22.29 10.14,44.74 15.68,66.99 2.72,10.79 5.53,21.59 9.2,32.09 2.01,5.32 7.47,21.91 14.82,19.54 4.13,-1.41 7.49,-7.28 9.82,-10.78 4.03,-6.16 8.49,-14.72 15.31,-17.97 2.76,-1.32 5.91,-1.46 8.91,-1.17 4.37,0.44 9.01,1.23 13.08,-0.89 6.59,-3.37 10.77,-11.88 14.04,-18.23 3.3,-6.59 6.16,-13.4 9.77,-19.83 2.3,-3.9 5.47,-9.35 10.07,-10.46 6.87,-1.45 12.87,9.61 15.77,14.51 4.74,8.47 8.7,17.34 13.07,26 4.05,7.77 10.73,21.65 18.84,25.13 6.77,2.93 13.09,-2.93 17.75,-7.21 3.75,-3.49 7.38,-7.13 11.55,-10.12 3.94,-2.87 8.45,-4.97 13.22,-5.97 3.82,-0.83 7.74,-1.07 11.63,-1.26 3.67,-0.17 7.35,-0.29 11.01,-0.51 6.16,-0.36 12.32,-0.88 18.48,-1.19 6.98,-0.36 13.96,-0.52 20.94,-0.92"
           style="fill:none;stroke:#b5b9bc;stroke-width:2px;stroke-linejoin:round"
           id="path17" />
        <path
           d="m 477.74,238.83 c 9.26,-0.72 18.54,-1.07 27.82,-1.43 6.1,-0.24 12.19,-0.76 18.29,-0.91 4.41,-0.1 8.84,0.1 13.19,0.81 7.36,1.1 14.37,3.85 21.75,4.89 11.3,1.63 18.61,-3.25 27.66,-8.97 4.45,-2.77 9.18,-5.42 14.43,-6.23 6.28,-1.05 12.45,0.9 18.49,2.36 5.47,1.37 10.72,1.82 16.3,0.88 9.36,-1.59 15.21,-3.42 22.71,3.98 3.59,3.62 6.31,8.01 8.81,12.43 3.26,5.85 6.08,11.95 8.88,18.03 2.97,6.44 5.84,12.95 9.17,19.22 2.42,4.27 8.61,16.58 14.52,10.84 6.78,-6.73 10.68,-32.63 12.51,-42.83 4.58,-27.23 7.41,-54.75 12.93,-81.82 1.55,-6.92 3.04,-13.99 6.19,-20.38 3.92,-7.63 8.08,-5.32 11.95,0.81 3.06,4.89 5.3,10.25 7.51,15.57 3.02,7.41 5.79,14.93 8.7,22.39 3.76,9.34 7.35,18.96 13.12,27.28 10.57,14.6 17.31,2.17 27.51,7.86 7.17,4.21 12.89,15.94 17.1,23.14 1.89,3.33 3.78,6.68 5.94,9.85 1.56,2.22 3.22,4.5 5.53,5.99 5.5,3.34 8.47,-4.68 9.94,-8.68 2.04,-5.95 3.3,-12.15 4.46,-18.32 2.69,-14.92 4.43,-30.02 6.13,-45.08 2.68,-23.97 4.86,-48.02 8.04,-71.93 1.15,-8.42 2.4,-16.87 4.26,-25.16 0.67,-2.93 1.43,-5.88 2.45,-8.71 0.68,-1.82 1.44,-3.69 2.66,-5.22 5.33,-6.56 10.68,10.63 12,14.11 2.79,8.18 5.01,16.57 7.16,24.94 4.37,17.23 8.25,34.6 12.39,51.88 3.13,13.02 6.31,26.05 10.2,38.86 2.26,6.91 8.53,29 16.57,29.49 4,0.18 7.18,-4.16 9.43,-6.96 4.41,-5.65 8.43,-13 14.72,-16.67 2,-1.14 4.3,-1.75 6.6,-1.78 2.61,-0.06 5.19,0.49 7.76,0.89 3.69,0.64 7.66,0.63 10.94,-1.41 6.5,-3.96 10.72,-13.26 13.97,-19.93 2.4,-5.09 4.62,-10.28 7.1,-15.33 2.52,-4.92 6.5,-13.27 11.91,-14.98 6.83,-2 12.79,8.63 15.71,13.42 3.37,5.84 6.31,11.92 9.29,17.96 2.83,5.73 5.65,11.47 8.83,17.01 2.43,4.18 5.03,8.33 8.37,11.85 4.89,5.16 10.24,6.96 16.82,3 4.68,-2.8 8.56,-6.73 12.79,-10.13 4.02,-3.3 8.41,-6.26 13.34,-7.99 4.69,-1.69 9.7,-2.22 14.65,-2.51 3.94,-0.23 7.89,-0.36 11.84,-0.6 6.25,-0.36 12.48,-0.89 18.73,-1.2 6.76,-0.35 13.54,-0.5 20.3,-0.88"
           style="fill:none;stroke:#b5b9bc;stroke-width:2px;stroke-linejoin:round"
           id="path18" />
        <path
           d="m 477.74,238.84 c 4.63,-0.32 9.27,-0.65 13.91,-0.88 4.98,-0.25 9.97,-0.38 14.96,-0.61 6.18,-0.25 12.34,-0.81 18.52,-0.97 4.54,-0.12 9.1,0.12 13.57,0.91 7.53,1.24 14.64,4.26 22.19,5.39 11.48,1.74 18.88,-3.56 28.06,-9.27 4.39,-2.7 9.11,-5.18 14.29,-5.84 7.29,-1.04 14.28,1.78 21.4,2.8 3.87,0.58 7.83,0.46 11.67,-0.28 3.3,-0.59 6.54,-1.58 9.88,-1.94 6.02,-0.74 10.6,1.81 14.49,6.19 3.3,3.71 5.85,8.03 8.19,12.4 3.1,5.85 5.8,11.93 8.45,18 2.96,6.78 5.8,13.63 9.01,20.3 2.16,4.21 8.31,18.06 14.19,15.66 6.02,-2.59 9.43,-19.96 10.88,-26.26 2.12,-10.07 3.73,-20.26 5.28,-30.43 3.03,-19.92 5.53,-39.94 9.09,-59.78 1.68,-8.87 3.34,-17.83 6.51,-26.31 3.39,-8.71 7.64,-11.93 13.61,-2.67 2.59,4.03 4.58,8.42 6.52,12.8 2.44,5.61 4.68,11.31 6.97,16.98 4.09,9.92 7.9,20.11 13.86,29.1 10.58,15.33 17.18,4.37 26.96,9.26 11.47,6.09 19.48,32.3 28.37,42.92 5.72,6.87 9.35,2.22 11.85,-4.22 2.81,-7.54 4.22,-15.52 5.61,-23.42 3.09,-18.72 5,-37.63 6.99,-56.5 2.13,-20.45 4.05,-40.94 6.73,-61.33 0.97,-7.23 2.03,-14.49 3.45,-21.65 1.05,-5.01 2.12,-10.1 4.17,-14.82 15.24,-33.86 36.01,135.83 56.34,148.75 3.63,2.74 7.22,0.68 10.08,-2.14 2.15,-2.09 4.01,-4.46 5.92,-6.76 3.32,-3.93 6.78,-8.21 11.75,-10.05 2.51,-0.93 5.26,-0.95 7.87,-0.51 3.11,0.5 6.13,1.52 9.28,1.78 7.03,0.72 11.62,-4.23 15.11,-9.73 4.98,-7.99 8.3,-16.86 12.21,-25.39 2.21,-4.8 4.44,-9.67 7.57,-13.96 3.56,-4.86 8.02,-7.53 13.41,-2.82 2.39,2.07 4.27,4.67 6.01,7.29 2.19,3.35 4.13,6.86 5.99,10.4 5.13,9.71 9.64,19.77 15.31,29.19 3.79,6.04 9.49,14.97 17.29,15.23 4.42,0.09 8.33,-2.49 11.79,-4.97 3.77,-2.76 7.33,-5.82 11.25,-8.37 3.8,-2.5 7.97,-4.47 12.4,-5.54 4.07,-1.01 8.27,-1.37 12.44,-1.61 3.8,-0.22 7.6,-0.37 11.4,-0.61 6.02,-0.37 12.04,-0.86 18.07,-1.16 6.43,-0.32 12.86,-0.47 19.29,-0.83"
           style="fill:none;stroke:#b5b9bc;stroke-width:2px;stroke-linejoin:round"
           id="path19" />
        <path
           d="m 477.74,238.85 c 4.83,-0.33 9.67,-0.68 14.51,-0.91 5.06,-0.25 10.12,-0.39 15.18,-0.63 6.18,-0.26 12.34,-0.84 18.51,-1.05 4.68,-0.15 9.39,0.06 14.01,0.92 7.7,1.32 14.92,4.61 22.63,5.91 11.56,1.97 18.99,-3.42 28.25,-9.14 4.62,-2.83 9.65,-5.37 15.13,-5.85 7.48,-0.76 14.63,2.22 22.04,2.59 3.99,0.25 7.96,-0.41 11.79,-1.48 2.99,-0.79 5.97,-1.79 9.07,-2.06 5.6,-0.59 9.99,2.28 13.47,6.38 3.01,3.52 5.35,7.55 7.51,11.63 2.78,5.32 5.2,10.84 7.53,16.37 3.91,9.26 7.5,18.67 11.7,27.8 2.31,4.77 5.79,12.53 10.19,15.45 6.91,4.3 10.75,-10.93 12.12,-15.48 2.43,-8.99 4.06,-18.2 5.61,-27.38 3.05,-18.5 5.43,-37.1 8.29,-55.63 1.32,-8.5 2.71,-17.01 4.47,-25.43 1.33,-6.19 2.74,-12.42 5.08,-18.32 6.84,-17.22 14.25,-2.01 18.72,7.1 3.98,8.45 7.37,17.16 11.15,25.69 2.61,5.86 5.32,11.73 8.81,17.12 10.88,16.59 17.44,6.24 27.09,10.86 7.07,3.62 12.17,14.36 15.72,21.29 3.97,7.95 7.4,16.19 11.9,23.86 1.92,3.04 5.95,9.92 10.16,7.2 4.86,-3.44 7.33,-16.96 8.58,-22.84 3.6,-19.07 5.51,-38.43 7.56,-57.72 2.13,-20.7 4.02,-41.45 6.46,-62.11 1.76,-13.76 3.26,-27.68 7,-41.08 2,-6.68 5.58,-14.79 11.19,-4.49 3.63,6.85 5.8,14.37 8.05,21.75 4.68,16.08 8.52,32.41 12.59,48.65 3.48,13.93 6.96,27.88 11.2,41.6 1.56,4.99 3.23,9.98 5.2,14.83 1.51,3.67 3.16,7.33 5.37,10.64 11.12,16.48 18.84,-8.48 31.27,-11.16 5.6,-1.42 10.98,1.56 16.39,2.56 5.26,1.03 9.39,-0.92 12.86,-5 3.51,-4.13 5.93,-9.05 8.23,-13.92 3.19,-6.9 5.93,-14.01 9.12,-20.91 2.78,-5.72 8.54,-19.13 16.44,-15.87 7.42,3.01 14.91,19.25 18.72,26.36 4.03,7.83 7.9,15.79 12.69,23.2 4.43,6.67 10.98,15.39 20.08,12.73 3.41,-0.96 6.42,-2.94 9.33,-4.91 3.32,-2.28 6.57,-4.69 10.06,-6.7 4.64,-2.73 9.81,-4.55 15.14,-5.33 6.8,-1.01 13.69,-1.02 20.53,-1.51 5.75,-0.36 11.49,-0.82 17.25,-1.1 6.14,-0.31 12.3,-0.45 18.44,-0.79"
           style="fill:none;stroke:#b5b9bc;stroke-width:2px;stroke-linejoin:round"
           id="path20" />
      </g>
    </g>
  </g>
  <g
     clip-path="url(#clippath-3)"
     id="g39"
     transform="translate(-624.36352,-55.896445)">
    <g
       clip-path="url(#clippath-4)"
       id="g38">
      <path
         d="m 365.35,244.36 9.83,-0.51"
         style="fill:none;stroke:#262626;stroke-width:0.89px;stroke-linecap:square;stroke-linejoin:round"
         id="path22" />
      <path
         d="m 365.38,244.34 c 8.49,-0.44 17,-0.73 25.49,-1.19 8.4,-0.45 16.79,-1.09 25.2,-1.37 5.29,-0.19 10.59,-0.2 15.88,-0.18 5.76,0.01 11.53,0.04 17.27,-0.52 4.38,-0.42 8.74,-1.21 12.97,-2.43 4.57,-1.3 9,-3.09 13.33,-5.03 10.38,-4.67 20.96,-10.32 32.71,-9.43 12.77,0.81 23.96,7.94 36.4,10.25 4.3,0.83 8.72,1.06 13.09,0.77 4.72,-0.28 9.39,-1.1 14.09,-1.55 10.3,-1.1 17.87,0.81 27,5.36 4.69,2.24 9.25,4.9 14.29,6.29 7.11,1.99 12.57,-0.59 16.99,-6.17 4.98,-6.38 7.96,-14.04 10.71,-21.58 5.94,-16.99 9.98,-34.56 14.51,-51.96 2.47,-9.53 4.97,-19.09 8.11,-28.43 2.14,-5.93 7.75,-23.66 15.86,-21.62 10.5,2.51 21.51,39.14 25.15,49.66 5.73,17.55 10.95,35.29 16.78,52.81 4.04,11.9 8.12,23.87 13.87,35.07 4.46,8.33 11.81,20.22 21.56,10.43 3.86,-3.85 6.68,-8.59 9.53,-13.2 4.82,-7.78 9.14,-16.12 15.81,-22.51 11.74,-10.91 20.86,-2.41 31.41,-7.33 10.21,-5 15.79,-22.88 19.2,-33.19 6.1,-19.34 10.22,-39.26 16.37,-58.59 1.24,-3.79 2.57,-7.59 4.2,-11.23 1.21,-2.65 2.55,-5.31 4.43,-7.56 5.46,-6.54 10.39,-0.25 13.35,5.04 3.81,6.91 6.39,14.44 8.87,21.91 3.43,10.62 6.34,21.43 9.12,32.24 10.33,40.3 18.47,81.17 29.66,121.25 2.6,9.07 5.35,18.16 8.89,26.92 2.2,5.11 7.91,19.61 14.8,16.11 7.24,-3.89 12.58,-25.76 14.91,-33.86 4.58,-17.09 8.35,-34.4 13.33,-51.38 1.86,-6.28 3.88,-12.55 6.39,-18.6 1.95,-4.64 4.17,-9.24 7.25,-13.25 4.87,-6.35 10.39,-8.47 18.34,-7.32 4.37,0.57 8.72,1.6 13.15,1.43 7.37,-0.13 13.77,-4.19 19.36,-8.65 2.99,-2.33 5.88,-4.8 9,-6.96 2.62,-1.8 5.44,-3.42 8.57,-4.12 6.77,-1.63 12.83,2.72 17.2,7.5 4.1,4.43 7.49,9.49 10.72,14.58 5.7,9.04 10.78,18.47 16.55,27.47 4.07,6.15 8.26,12.55 14.31,16.94 8.68,6.16 15.79,0.73 21.5,-6.63 8.78,-11.58 14.65,-25.05 22.97,-36.94 7.77,-11.14 16.43,-19.65 31.07,-18.64 5.69,0.32 11.27,1.59 16.87,2.52 5.57,0.96 11.21,1.61 16.86,1.76 9.75,0.26 19.49,-0.61 29.22,-1.05 7.36,-0.36 14.73,-0.63 22.09,-1.02 6.86,-0.35 13.72,-0.84 20.59,-1.19"
         style="fill:none;stroke:#0072bd;stroke-width:2px;stroke-linejoin:round"
         id="path23" />
      <path
         d="m 365.38,244.33 c 8.59,-0.47 17.18,-0.76 25.77,-1.22 8.2,-0.42 16.4,-1.04 24.61,-1.33 9.74,-0.42 19.5,0.1 29.24,-0.09 11.05,-0.2 20.3,-2.31 30.34,-6.82 8.91,-3.88 17.54,-8.96 27.26,-10.49 5.11,-0.82 10.35,-0.47 15.37,0.7 6.74,1.55 13.1,4.33 19.66,6.47 5.66,1.89 11.55,3.2 17.54,3.3 9.26,0.27 18.46,-2.38 27.72,-1.19 5.98,0.71 11.59,3.1 16.81,6 4.95,2.68 9.65,5.9 14.92,7.96 3.87,1.55 8.45,2.04 12.23,-0.03 6.98,-3.8 11.02,-13 13.98,-20.07 3.45,-8.65 6.05,-17.62 8.49,-26.59 3.15,-11.71 5.92,-23.54 8.83,-35.31 3.08,-12.27 6.06,-24.63 10.48,-36.5 2,-5 4.92,-12.57 9.67,-15.39 6.07,-3.24 11.09,5.36 13.64,9.74 3.33,6.01 5.93,12.42 8.39,18.84 5.03,13.33 9.29,26.96 13.6,40.53 4.06,12.81 8.08,25.67 12.58,38.34 3.4,9.4 6.92,18.83 11.74,27.6 4.72,8.35 11.75,18.07 21.23,8.91 5.75,-5.64 9.66,-12.88 14.29,-19.41 3.3,-4.69 6.79,-9.43 11.5,-12.8 12.36,-8.96 23.5,3.01 34.27,-7.04 8.38,-8.01 13.22,-25.21 16.49,-36.32 3.77,-13.4 6.87,-26.99 10.26,-40.48 2.44,-9.57 4.88,-19.2 8.36,-28.46 3.09,-7.96 8.92,-20.88 17.13,-8.74 2.88,4.27 4.89,9.09 6.76,13.87 2.6,6.78 4.78,13.75 6.83,20.72 11.5,40.26 19.63,81.38 29.95,121.94 3,11.8 6.14,23.61 9.87,35.21 2.63,7.92 5.34,15.94 9.53,23.19 3.6,6.09 8.58,10.83 14.08,2.99 4.09,-6.05 6.29,-13.15 8.57,-20.03 5.51,-17.65 9.53,-35.73 14.97,-53.4 1.94,-6.29 4.04,-12.55 6.65,-18.6 2.08,-4.75 4.44,-9.46 7.74,-13.5 5.22,-6.36 10.9,-7.93 18.94,-7.06 4.35,0.41 8.74,1.03 13.09,0.34 7.19,-1.03 13.17,-5.61 18.49,-10.27 4.45,-3.81 8.66,-8.05 13.89,-10.78 10.47,-5.55 18.55,2.39 24.69,10.35 8.35,11.1 14.59,23.6 21.86,35.4 2.58,4.22 5.27,8.4 8.31,12.31 2.38,3.03 4.97,5.97 8.11,8.22 8.52,6.18 15.63,1.33 21.54,-5.95 9.05,-11.41 15.09,-24.86 23.84,-36.48 7.87,-10.49 16.45,-17.6 30.35,-16.93 5.56,0.2 11.06,1.23 16.56,1.96 5.48,0.76 11.02,1.24 16.55,1.29 9.47,0.1 18.91,-0.73 28.37,-1.16 7.16,-0.36 14.34,-0.62 21.5,-1 6.58,-0.33 13.16,-0.79 19.75,-1.12"
         style="fill:none;stroke:#d95319;stroke-width:2px;stroke-linejoin:round"
         id="path24" />
      <path
         d="m 365.38,244.31 c 8.21,-0.46 16.43,-0.76 24.65,-1.17 7.18,-0.35 14.34,-0.84 21.52,-1.19 6.41,-0.32 12.84,-0.41 19.26,-0.27 10.3,0.19 20.74,0.95 30.9,-1.18 7.42,-1.49 14.4,-4.53 21.18,-7.82 7.71,-3.7 15.58,-7.73 24.21,-8.61 5.99,-0.66 12.02,0.36 17.75,2.11 8.36,2.53 16.42,6.24 25.1,7.63 4.6,0.77 9.3,0.84 13.95,0.5 4.9,-0.33 9.79,-1.03 14.71,-0.96 4.31,0.03 8.62,0.76 12.66,2.27 6.6,2.42 12.33,6.57 18.15,10.41 9.1,6.02 17.76,10.43 25.88,0.33 2.59,-3.21 4.53,-6.91 6.24,-10.65 2.24,-4.97 4.05,-10.14 5.7,-15.34 4.37,-13.96 7.65,-28.25 11,-42.48 3.07,-13.07 6.02,-26.19 9.78,-39.08 1.43,-4.85 2.98,-9.69 4.91,-14.37 1.39,-3.31 2.93,-6.64 5.14,-9.49 7.56,-9.82 14.63,2.4 18.14,9.12 4.63,9.11 8.09,18.78 11.47,28.41 6.54,18.9 12.24,38.09 18.79,56.98 3.58,10.22 7.28,20.46 12.13,30.16 3.48,6.58 10.19,19.52 19.33,15.48 2.07,-0.92 3.84,-2.4 5.44,-3.98 2.04,-2.03 3.84,-4.29 5.59,-6.56 5.09,-6.56 9.58,-13.88 16.32,-18.92 5.24,-3.87 10.6,-4.37 16.84,-3.21 3.31,0.55 6.63,1.37 10.01,1.25 5.6,-0.08 9.89,-3.65 12.91,-8.09 3.35,-4.87 5.62,-10.41 7.64,-15.94 4.51,-12.72 7.59,-25.91 10.68,-39.03 2.37,-10.18 4.62,-20.41 7.12,-30.56 2,-8.01 4.06,-16.05 6.89,-23.81 1.78,-4.52 5.78,-15.7 11.78,-13.84 6.84,2.44 12.44,19.94 14.82,26.67 5.47,16.57 9.68,33.54 13.84,50.48 5.55,22.83 10.7,45.79 16.24,68.63 5.29,21.18 10.29,42.56 18.21,62.95 8.71,21.51 16.57,25.01 25.6,0.8 6.36,-17.26 10.47,-35.24 16.16,-52.72 1.97,-6.08 4.09,-12.15 6.68,-18 2.05,-4.59 4.39,-9.12 7.54,-13.06 5.14,-6.4 10.73,-8.42 18.86,-7.97 4.43,0.19 8.93,0.61 13.31,-0.33 7.04,-1.41 12.79,-6.12 17.89,-10.92 12.56,-11.99 22.23,-23.46 37.17,-6.08 4.36,5.07 7.93,10.77 11.39,16.49 4.48,7.48 8.66,15.14 13.16,22.61 2.53,4.18 5.15,8.32 8.08,12.23 2.41,3.17 5.01,6.25 8.17,8.69 8.18,6.39 15.22,3 21.6,-4.28 3.9,-4.44 7.12,-9.44 10.31,-14.4 4.79,-7.48 9.35,-15.16 14.97,-22.07 7.83,-9.64 16.29,-15.53 29.26,-15.23 5.45,0.07 10.86,0.88 16.28,1.44 5.39,0.59 10.81,0.93 16.22,0.91 9.27,-0.02 18.52,-0.82 27.77,-1.25 6.99,-0.36 13.98,-0.61 20.97,-0.97 6.3,-0.31 12.6,-0.73 18.9,-1.06"
         style="fill:none;stroke:#edb120;stroke-width:2px;stroke-linejoin:round"
         id="path25" />
      <path
         d="m 365.38,244.3 c 8.68,-0.51 17.37,-0.82 26.05,-1.25 7.46,-0.35 14.91,-0.87 22.36,-1.19 7.1,-0.32 14.2,-0.3 21.3,-0.01 6.81,0.24 13.63,0.68 20.44,0.2 5.65,-0.38 11.24,-1.5 16.58,-3.38 7.3,-2.52 14.06,-6.31 21.06,-9.53 13.85,-6.46 23.4,-6.7 37.69,-1.82 7.21,2.41 14.36,5.26 21.93,6.33 6.4,0.99 12.88,0.47 19.3,-0.04 15.44,-1.4 23.31,2.3 35.31,11.4 4.56,3.39 8.98,7.13 14.16,9.56 6.66,3.12 12.02,1.46 16.51,-4.11 4.14,-5.21 6.7,-11.48 9.01,-17.66 3.28,-9.07 5.78,-18.43 8.11,-27.79 4.25,-17.16 7.79,-34.49 11.96,-51.67 1.64,-6.7 3.36,-13.41 5.41,-20 1.59,-5.04 3.32,-10.09 5.72,-14.81 6.66,-13.06 13.18,-9.27 19.39,1.56 5.34,9.52 9.03,19.87 12.73,30.12 6.04,17.17 11.38,34.59 17.35,51.78 3.12,8.94 6.36,17.87 10.24,26.52 3.25,6.93 8.89,19.32 16.53,21.86 7.36,2.31 13.87,-6.45 18.12,-11.32 3.56,-4.23 7,-8.64 11.28,-12.19 8.44,-6.91 14.67,-5.31 24.31,-2.69 3.05,0.75 6.28,1.33 9.39,0.6 6.2,-1.47 9.9,-7.37 12.63,-12.68 6.1,-12.65 9.27,-26.48 12.57,-40.06 4.59,-19.56 8.22,-39.35 13.29,-58.79 5.87,-21.67 13.9,-44.71 27.3,-9.87 5.97,15.68 10.12,32.01 14.28,48.25 5.67,22.57 10.8,45.29 16.2,67.92 5.24,21.62 10.38,43.35 17.48,64.45 2.64,7.32 7.77,22.58 14.48,26.23 5.9,2.91 10.06,-5.48 12.23,-9.71 3.37,-7.06 5.8,-14.53 8.21,-21.95 3.25,-10.14 6.23,-20.37 9.69,-30.44 3.53,-9.92 7.1,-20.13 13.48,-28.63 4.92,-6.38 10.42,-9.06 18.53,-9.01 4.35,-0.04 8.75,0.27 13.04,-0.66 6.94,-1.39 12.66,-6 17.58,-10.87 3.29,-3.24 6.38,-6.69 9.68,-9.91 2.79,-2.69 5.75,-5.33 9.28,-7 6.62,-3.21 12.59,-0.38 17.58,4.56 4.86,4.82 8.63,10.62 12.23,16.41 4.6,7.5 8.8,15.25 13.23,22.86 2.75,4.7 5.56,9.39 8.7,13.84 2.58,3.63 5.36,7.18 8.75,10.09 7.72,6.67 14.73,5.23 21.78,-2.04 4.26,-4.39 7.7,-9.48 11.12,-14.53 4.88,-7.24 9.55,-14.68 15.29,-21.29 7.71,-8.9 16.06,-14.17 28.24,-14.26 5.23,-0.09 10.45,0.5 15.66,0.92 5.3,0.45 10.63,0.71 15.96,0.66 9.25,-0.09 18.48,-0.88 27.71,-1.32 6.81,-0.35 13.62,-0.61 20.43,-0.94 6.11,-0.3 12.21,-0.69 18.31,-1"
         style="fill:none;stroke:#7e2f8e;stroke-width:2px;stroke-linejoin:round"
         id="path26" />
      <path
         d="m 365.38,244.29 c 8.96,-0.55 17.93,-0.88 26.89,-1.3 7.47,-0.35 14.93,-0.86 22.39,-1.17 6.9,-0.29 13.82,-0.27 20.71,0.07 11.32,0.55 22.92,1.74 34.03,-1.24 8.84,-2.23 16.81,-6.76 24.97,-10.68 14.43,-7.02 23.95,-7.59 39.03,-2.52 7.29,2.4 14.56,5.18 22.23,6.1 4.15,0.53 8.35,0.52 12.52,0.29 4.61,-0.25 9.24,-0.73 13.87,-0.44 4.17,0.24 8.3,1.21 12.11,2.94 6.9,3.1 12.65,8.13 18.35,12.99 4.01,3.37 7.99,6.94 12.71,9.29 5.13,2.55 9.95,2.1 14.06,-1.97 9.14,-9.04 14.71,-32.3 17.99,-45.04 4.32,-17.55 7.83,-35.3 11.87,-52.92 2.86,-12.14 5.65,-24.4 10.25,-36.02 4.86,-11.88 11.2,-19.24 20.15,-5.09 6.43,10.5 10.47,22.32 14.67,33.83 5.7,16.11 10.83,32.42 16.58,48.51 4.3,11.49 14,40.39 25.19,45.25 7.08,3.08 13.2,-3.66 17.72,-8.24 3.56,-3.7 6.97,-7.62 11.08,-10.74 7.98,-6.06 14.38,-4.88 23.16,-1.58 3.07,1.09 6.22,2.23 9.51,2.3 5.65,0.21 9.85,-3.93 12.64,-8.42 3.49,-5.59 5.74,-11.87 7.77,-18.11 2.72,-8.56 4.84,-17.32 6.83,-26.08 4.48,-19.9 8.03,-40.02 12.64,-59.9 2.42,-9.82 4.65,-19.88 9.2,-28.98 6.78,-12.96 13.05,-3.02 17.05,5.63 6.36,14.38 10.32,29.7 14.4,44.84 5.76,22.08 10.84,44.36 16.13,66.56 5.3,22.1 10.52,44.28 17.28,65.99 2.97,9.13 5.98,18.38 10.79,26.73 4.77,8.04 10.22,11.2 16.3,1.77 2.89,-4.5 4.93,-9.5 6.87,-14.47 2.49,-6.48 4.68,-13.09 6.9,-19.66 2.78,-8.24 5.55,-16.51 8.86,-24.55 2.55,-6.11 5.36,-12.2 9.29,-17.55 4.81,-6.51 10.28,-9.83 18.49,-10.12 4.23,-0.21 8.52,0 12.69,-0.88 6.84,-1.31 12.55,-5.73 17.31,-10.61 4.82,-4.86 9.03,-10.31 13.97,-15.06 6.77,-6.54 13.92,-9.85 22.26,-3.13 3.42,2.74 6.22,6.19 8.79,9.72 3.28,4.54 6.18,9.35 9.01,14.19 4.74,8.15 9.19,16.47 14.11,24.52 3.69,5.93 7.54,11.89 12.58,16.77 7.23,6.94 14.36,7.6 22.17,0.42 4.43,-4.06 7.97,-8.98 11.47,-13.83 4.87,-6.8 9.51,-13.81 15.1,-20.05 7.75,-8.69 16.15,-13.94 28.15,-14.34 5.14,-0.23 10.28,0.2 15.41,0.5 5.2,0.32 10.42,0.5 15.63,0.41 9.17,-0.16 18.32,-0.94 27.48,-1.38 12.52,-0.59 25.05,-1.13 37.57,-1.86"
         style="fill:none;stroke:#77ac30;stroke-width:2px;stroke-linejoin:round"
         id="path27" />
      <path
         d="m 365.38,244.28 c 9.32,-0.59 18.66,-0.94 27.99,-1.37 7.56,-0.34 15.11,-0.86 22.68,-1.15 6.73,-0.27 13.48,-0.22 20.21,0.19 10.94,0.61 22.08,2.13 32.93,-0.18 10.03,-1.99 18.93,-7.2 28.02,-11.63 14.66,-7.17 24.14,-7.32 39.38,-2.25 6.88,2.24 13.78,4.69 21.01,5.53 3.97,0.49 7.98,0.5 11.96,0.3 4.16,-0.19 8.32,-0.57 12.49,-0.39 3.61,0.15 7.21,0.78 10.59,2.05 6.67,2.48 12.25,7.06 17.44,11.81 4.1,3.76 7.99,7.76 12.26,11.34 5.16,4.31 12.06,8.82 18.39,4.01 7.73,-5.9 12.29,-21.32 15.09,-30.56 3.16,-10.94 5.68,-22.07 8.1,-33.19 2.97,-13.72 5.73,-27.5 8.82,-41.19 2.36,-10.29 4.8,-20.61 8.27,-30.59 9.36,-26.78 18.31,-18.41 27.69,2.41 7.43,16.89 12.95,34.53 19.05,51.93 3.84,11.05 7.72,22.12 12.31,32.88 3.64,8.17 10.7,24.86 19.97,27.16 6.62,1.53 12.35,-4.46 16.86,-8.48 3.49,-3.2 6.96,-6.55 11.15,-8.82 8.21,-4.49 15.12,-1.22 22.81,2.37 3.19,1.42 6.54,2.88 10.1,2.84 6.3,-0.07 10.38,-5.82 13.04,-10.88 3.15,-6.06 5.26,-12.6 7.18,-19.13 2.45,-8.53 4.43,-17.22 6.27,-25.9 4.26,-20.13 7.68,-40.45 12.04,-60.56 2.19,-9.78 4.39,-19.65 8.08,-29 4.58,-11.34 10.05,-14.81 16.88,-2.07 2.98,5.59 5.17,11.59 7.22,17.58 2.74,8.11 5.1,16.38 7.35,24.63 5.97,22.13 11.12,44.49 16.45,66.77 5.25,21.83 10.42,43.71 16.9,65.21 2.98,9.58 6.07,19.23 10.62,28.21 3.41,6.55 9.39,15.67 16.57,7.13 2.53,-3 4.34,-6.54 6.01,-10.07 2.23,-4.78 4.13,-9.72 5.99,-14.65 3.28,-8.76 6.35,-17.61 9.95,-26.25 2.79,-6.6 5.81,-13.2 10.06,-19 4.56,-6.22 9.99,-9.95 17.85,-10.54 4.04,-0.37 8.14,-0.21 12.15,-0.92 6.96,-1.08 12.85,-5.33 17.64,-10.32 4.85,-4.98 8.99,-10.59 13.62,-15.77 5.78,-6.45 13.35,-13.38 22.31,-7.92 3.69,2.22 6.63,5.5 9.28,8.85 3.31,4.26 6.2,8.85 8.97,13.48 5.07,8.52 9.7,17.3 14.77,25.83 3.76,6.24 7.64,12.49 12.62,17.84 6.64,7.12 14.03,10.23 22.64,3.4 6.3,-5.05 10.91,-11.83 15.77,-18.19 6.72,-8.85 13.52,-18.25 23.41,-23.77 4.71,-2.62 10.04,-3.97 15.4,-4.35 5.1,-0.39 10.23,-0.1 15.33,0.09 5.1,0.21 10.21,0.32 15.31,0.2 9.17,-0.21 18.32,-0.99 27.48,-1.44 12.16,-0.59 24.32,-1.07 36.48,-1.78"
         style="fill:none;stroke:#4dbeee;stroke-width:2px;stroke-linejoin:round"
         id="path28" />
      <path
         d="m 365.38,244.27 c 9.71,-0.64 19.43,-1 29.14,-1.44 7.64,-0.34 15.28,-0.86 22.93,-1.13 6.74,-0.25 13.49,-0.16 20.22,0.32 10.67,0.71 21.48,2.46 32.13,0.63 10.51,-1.67 19.79,-7.06 29.17,-11.75 15.69,-7.86 25.05,-7.69 41.35,-2.33 6.48,2.07 13.04,4.17 19.85,4.83 3.77,0.4 7.58,0.37 11.37,0.19 7.34,-0.39 14.99,-1.03 21.99,1.7 6.36,2.37 11.69,6.76 16.52,11.42 4.46,4.31 8.56,8.98 12.96,13.36 4.98,4.77 12.41,12.19 19.77,8 8.43,-5 13.39,-22.58 16.12,-31.82 3.27,-11.62 5.83,-23.44 8.33,-35.25 2.79,-13.3 5.39,-26.66 8.29,-39.93 2.24,-10.12 4.56,-20.27 7.73,-30.15 10.98,-34.49 21.39,-18.08 31.23,5.3 8.02,19.52 14.27,39.7 21.77,59.42 3.19,8.38 6.54,16.75 10.68,24.71 3.47,6.39 9.13,16.71 17.15,17.39 9.58,0.68 18.17,-13.09 28.43,-15.39 8.89,-2.25 16.48,4.22 24.01,7.84 3.23,1.56 7.04,2.75 10.56,1.47 6.47,-2.42 10.02,-10.93 12.43,-16.93 5.54,-14.93 8.57,-30.66 11.7,-46.23 3.85,-19.8 7.09,-39.74 11.2,-59.49 2.06,-9.61 4.17,-19.28 7.54,-28.53 3.3,-8.84 8.6,-18.11 16.14,-5.68 3.18,5.29 5.38,11.12 7.46,16.9 2.87,8.15 5.31,16.48 7.61,24.81 6.11,22.26 11.33,44.77 16.75,67.2 5.23,21.54 10.39,43.15 16.85,64.37 2.91,9.29 5.95,18.63 10.32,27.36 3.09,6.04 9.13,16.09 16.4,8.82 2.55,-2.53 4.37,-5.7 6.05,-8.85 2.27,-4.34 4.19,-8.87 6.06,-13.39 3.25,-7.91 6.29,-15.93 9.8,-23.74 2.76,-6.05 5.74,-12.09 9.81,-17.38 4.4,-5.74 9.74,-9.38 17.09,-10.1 3.85,-0.44 7.75,-0.34 11.59,-0.92 7.16,-0.94 13.02,-4.88 17.93,-10.04 4.87,-5.04 8.93,-10.78 13.31,-16.23 5.3,-6.39 12.71,-15.82 22.03,-12.35 8.29,3.22 15.11,14.54 19.65,21.83 5.13,8.5 9.77,17.3 14.77,25.87 3.64,6.19 7.41,12.37 12.03,17.89 6.05,7.2 13.78,12.93 23.11,6.9 3.17,-2.01 5.86,-4.67 8.38,-7.43 3.01,-3.31 5.77,-6.83 8.57,-10.32 10.16,-12.73 20,-24.9 37.43,-26.56 5.17,-0.57 10.4,-0.41 15.59,-0.31 5.13,0.12 10.26,0.17 15.39,0.01 9.08,-0.28 18.14,-1.04 27.22,-1.49 11.76,-0.57 23.52,-1.02 35.27,-1.7"
         style="fill:none;stroke:#a2142f;stroke-width:2px;stroke-linejoin:round"
         id="path29" />
      <path
         d="m 365.38,244.27 c 10.18,-0.69 20.38,-1.06 30.58,-1.52 8.03,-0.35 16.05,-0.91 24.08,-1.14 8.07,-0.26 16.15,0.12 24.17,0.96 17.22,1.86 28.16,3.08 44.35,-4.66 14.09,-6.68 25.12,-14.99 41.66,-12.15 7.88,1.27 15.32,4.34 23.08,6.14 5.32,1.28 10.8,1.86 16.27,1.72 5.67,-0.09 11.36,-0.82 17.03,-0.27 8.95,0.73 16.28,5.59 22.54,11.72 7.83,7.5 14.02,16.56 22.02,23.89 10.15,9.22 16.92,5.76 22.72,-5.54 4.8,-9.67 7.55,-20.22 10.21,-30.64 3.54,-14.36 6.39,-28.9 9.29,-43.41 3.22,-15.98 6.27,-32.04 10.46,-47.8 1.96,-7.13 4.04,-14.33 7.39,-20.96 3.47,-6.75 8.37,-11.4 14.79,-4.16 3.29,3.73 5.62,8.21 7.82,12.64 3.03,6.24 5.63,12.71 8.12,19.18 6.61,17.19 12.38,34.72 19.35,51.77 4.18,9.75 12.89,31.92 24.02,34.11 5.35,1.07 10.24,-2.26 14.49,-5.08 3.51,-2.35 7.01,-4.87 11.04,-6.25 9.98,-3.58 18.21,3.84 26.05,8.91 8.47,5.59 14.72,5.88 20.54,-3.57 2.75,-4.52 4.62,-9.54 6.27,-14.55 2.17,-6.67 3.87,-13.52 5.42,-20.36 7.49,-33.43 11.44,-67.57 19.18,-100.95 9.89,-41.95 19.43,-31.98 30.5,2.37 8.84,28.15 15.23,57 22.33,85.62 v 0 c 3.88,15.84 7.8,31.7 12.23,47.39 3.25,11.36 6.65,22.74 11.23,33.64 11.98,28.15 20.54,19.37 30.75,-3.35 3.32,-7.28 6.38,-14.7 9.9,-21.89 2.68,-5.43 5.57,-10.82 9.38,-15.55 12.89,-15.95 23.98,-5.89 38.17,-14 7.19,-4.28 12.24,-11.21 17.17,-17.8 3.75,-5.06 7.33,-10.29 11.7,-14.85 5.86,-6.12 12.4,-9.27 19.97,-3.74 5.3,3.93 9.1,9.47 12.71,14.91 4.98,7.71 9.33,15.82 13.84,23.81 3.9,6.91 7.85,13.83 12.47,20.3 4.78,6.47 11.68,15.18 20.64,14.19 9.12,-1.09 17.58,-12.55 23.41,-19.13 8.97,-10.55 18.46,-21.13 32.73,-23.79 5.77,-1.15 11.69,-1.17 17.55,-1.16 5.58,0.03 11.17,0.05 16.76,-0.17 8.91,-0.33 17.81,-1.08 26.71,-1.52 11.37,-0.56 22.75,-0.96 34.12,-1.62"
         style="fill:none;stroke:#136491;stroke-width:2px;stroke-linejoin:round"
         id="path30" />
      <path
         d="m 365.37,244.26 c 10.93,-0.76 21.88,-1.15 32.82,-1.63 8.78,-0.38 17.55,-1.03 26.34,-1.13 5.8,-0.06 11.6,0.21 17.37,0.8 5.82,0.57 11.61,1.46 17.43,1.93 18.34,1.61 27.64,-3.38 43.16,-11.54 6.73,-3.47 13.93,-6.54 21.6,-6.89 9.88,-0.56 19.19,3.26 28.6,5.63 4.85,1.24 9.84,2.04 14.85,2.14 8.04,0.27 16.2,-1.48 24.16,0.24 8.62,1.79 15.49,7.83 21.23,14.18 5.19,5.74 9.76,12 14.65,17.99 3.57,4.28 7.21,8.73 12,11.7 5.25,3.2 9.78,1.84 13.49,-2.76 3.84,-4.83 6.08,-10.71 8.14,-16.46 5.07,-14.94 8.22,-30.46 11.41,-45.89 5.15,-24.9 9.09,-50.12 16.09,-74.6 2.28,-7.08 8.6,-29.97 19.05,-20.65 3.98,3.66 6.52,8.58 8.99,13.32 3.54,7.11 6.52,14.51 9.4,21.91 4.76,12.26 9.16,24.68 14,36.91 3.63,9.1 7.39,18.21 12.26,26.73 3.73,6.26 9.19,14.9 17.26,15.22 10.33,0.09 18.25,-11.92 30.18,-9.14 6.9,1.69 12.19,6.81 17.65,11.05 3.15,2.44 6.4,5.03 10.31,6.08 6.43,1.75 10.79,-3.94 13.43,-8.99 3.22,-6.21 5.27,-12.96 7.12,-19.68 4.14,-15.52 6.91,-31.37 9.64,-47.18 3.37,-19.69 6.35,-39.47 10.12,-59.1 1.91,-9.68 3.9,-19.4 6.93,-28.79 2.14,-6.39 7.29,-20.82 15.01,-10.89 3.63,4.76 5.84,10.44 8.01,15.98 3.15,8.37 5.73,16.98 8.19,25.57 6.61,23.45 12.18,47.2 18.08,70.84 5.09,20.31 10.16,40.69 16.67,60.6 2.84,8.39 5.81,16.84 10.19,24.57 3.59,6.2 9.25,13.12 16.23,6.27 3.33,-3.27 5.65,-7.41 7.88,-11.47 2.99,-5.56 5.64,-11.31 8.45,-16.97 2.53,-5.09 5.15,-10.16 8.29,-14.91 2.59,-3.89 5.56,-7.65 9.38,-10.41 2.39,-1.74 5.14,-2.99 8.03,-3.64 2.94,-0.68 5.99,-0.8 8.99,-0.92 3.81,-0.14 7.67,-0.41 11.29,-1.66 6.8,-2.3 11.99,-7.66 16.35,-13.16 3.93,-4.96 7.38,-10.27 11.05,-15.42 4.42,-6.01 10.78,-15.36 18.71,-15.86 7.64,-0.32 13.65,7.44 17.76,12.93 3.79,5.26 7.09,10.87 10.31,16.49 6.02,10.48 11.59,21.27 18.48,31.22 5.47,7.6 13.53,18.11 24.1,15.13 3.64,-1.04 6.79,-3.31 9.63,-5.75 3.36,-2.92 6.39,-6.2 9.4,-9.47 9.7,-10.64 19.33,-21.31 34.21,-24.07 5.58,-1.11 11.3,-1.22 16.98,-1.29 5.48,-0.05 10.96,-0.09 16.44,-0.33 8.87,-0.38 17.73,-1.12 26.6,-1.56 10.93,-0.54 21.87,-0.91 32.8,-1.53"
         style="fill:none;stroke:#ef624b;stroke-width:2px;stroke-linejoin:round"
         id="path31" />
      <path
         d="m 365.37,244.26 c 11.31,-0.8 22.65,-1.21 33.97,-1.69 8.98,-0.38 17.95,-1.06 26.93,-1.12 5.89,-0.04 11.79,0.3 17.64,0.99 6.02,0.68 12.01,1.73 18.05,2.3 18.98,1.92 28.23,-3.71 44.2,-12.02 7.09,-3.63 14.84,-6.54 22.93,-6.34 9.41,0.12 18.24,3.74 27.33,5.68 4.77,1.05 9.65,1.58 14.54,1.5 8.05,-0.05 16.33,-1.8 24.21,0.55 8.66,2.54 15.17,9.28 20.77,16.03 5.19,6.33 9.77,13.13 14.69,19.67 3.57,4.65 7.2,9.47 12.06,12.86 4.58,3.12 8.95,2.83 12.72,-1.26 4.28,-4.78 6.58,-10.97 8.74,-16.92 5.09,-15.01 8.2,-30.62 11.36,-46.13 5.23,-25.63 9.16,-51.58 16.25,-76.79 1.94,-6.16 7.24,-25.59 15.77,-23.28 8.59,2.38 17.38,25.84 20.89,34.11 4.74,11.76 9.11,23.68 13.89,35.43 3.62,8.82 7.37,17.66 12.18,25.91 3.84,6.31 9.24,14.6 17.32,15.2 10.44,0.46 18.3,-10.53 30.39,-5.96 5.64,2.18 10.09,6.47 14.47,10.5 4.31,3.87 10.25,10.36 16.21,10.85 6.66,0.35 10.35,-7.24 12.7,-12.41 2.86,-6.67 4.78,-13.71 6.53,-20.74 3.78,-15.65 6.43,-31.57 9.04,-47.45 3.24,-19.91 6.14,-39.9 9.8,-59.74 1.84,-9.76 3.78,-19.56 6.66,-29.08 1.91,-5.83 6.71,-21.88 14.56,-13.58 3.86,4.36 6.05,9.93 8.25,15.26 3.3,8.44 5.96,17.14 8.49,25.83 7,24.43 12.83,49.18 19.12,73.8 4.99,19.39 9.95,38.85 16.5,57.79 2.84,7.91 5.8,15.92 10.36,23.02 3.91,5.97 9.21,10.34 15.59,4.2 3.39,-3.27 5.83,-7.37 8.19,-11.4 3.11,-5.41 5.93,-10.98 9.02,-16.4 2.37,-4.15 4.87,-8.26 7.85,-12 2.51,-3.14 5.42,-6.05 8.94,-8.04 2.41,-1.37 5.09,-2.23 7.83,-2.64 2.99,-0.46 6.03,-0.44 9.04,-0.53 3.71,-0.1 7.47,-0.47 10.95,-1.82 6.75,-2.58 11.77,-8.18 16.04,-13.82 3.74,-4.98 7.05,-10.27 10.51,-15.44 4.25,-6.14 9.99,-15.16 17.25,-17.46 7.15,-2.17 13.35,3.9 17.51,9 3.96,4.88 7.29,10.26 10.49,15.66 5.85,9.9 11.16,20.12 17.3,29.84 5.52,8.44 14.5,22.42 25.85,21.22 3.34,-0.35 6.44,-1.92 9.17,-3.8 3.04,-2.11 5.78,-4.63 8.42,-7.2 9.87,-9.74 19.42,-20.88 33.31,-24.66 8.62,-2.44 17.68,-2.2 26.55,-2.44 6.13,-0.13 12.26,-0.41 18.38,-0.81 6.79,-0.44 13.59,-0.9 20.39,-1.22 9.71,-0.44 19.42,-0.78 29.12,-1.32"
         style="fill:none;stroke:#eacd21;stroke-width:2px;stroke-linejoin:round"
         id="path32" />
      <path
         d="m 365.37,244.26 c 11.79,-0.84 23.6,-1.27 35.41,-1.77 9.25,-0.39 18.49,-1.12 27.75,-1.11 6.01,0 12.01,0.43 17.96,1.25 6.13,0.81 12.2,2 18.35,2.65 16.6,1.88 26.18,-2.5 40.3,-10.09 5,-2.62 10.09,-5.19 15.55,-6.7 4.49,-1.27 9.2,-1.69 13.85,-1.29 8.83,0.74 17.18,4.03 25.88,5.47 4.6,0.8 9.3,1.03 13.96,0.79 8.13,-0.39 16.68,-2.08 24.49,1.08 8.64,3.45 14.81,10.87 20.29,18.08 5,6.7 9.45,13.8 14.2,20.67 3.59,5.07 7.21,10.31 12.11,14.23 3.09,2.44 7.04,3.88 10.63,1.59 5.55,-3.59 8.73,-12.27 10.94,-18.31 5.03,-14.73 8.07,-30.06 11.16,-45.29 5.32,-26.35 9.3,-53.03 16.38,-78.99 11.79,-42.3 23.24,-23.64 35.49,4.93 4.89,11.5 9.31,23.2 14.13,34.73 3.56,8.45 7.24,16.9 11.87,24.83 3.96,6.52 9.42,14.91 17.64,15.9 10.73,0.96 18.6,-9.44 31.07,-2.76 5.75,3.16 10.19,8.15 14.65,12.85 4.15,4.26 10.24,11.7 16.3,12.53 7.36,0.83 11.4,-9.07 13.65,-14.68 2.9,-7.68 4.86,-15.7 6.65,-23.7 3.84,-17.67 6.57,-35.57 9.33,-53.44 2.9,-18.93 5.61,-37.92 9.06,-56.76 1.71,-9.12 3.54,-18.27 6.18,-27.17 1.66,-5.13 5.99,-20.24 13.08,-15.28 1.97,1.44 3.37,3.54 4.62,5.6 1.87,3.17 3.38,6.58 4.77,9.99 3.76,9.39 6.71,19.12 9.53,28.83 8.03,28.11 14.65,56.61 22.28,84.82 4.26,15.58 8.6,31.21 14.45,46.28 2.52,6.22 5.18,12.53 9.24,17.92 3.76,4.95 8.54,7.64 14.06,3.04 2.31,-1.9 4.18,-4.3 5.91,-6.73 2.24,-3.17 4.25,-6.51 6.25,-9.83 3.23,-5.35 6.41,-10.78 10.24,-15.74 4.14,-5.39 9.51,-10.37 16.38,-11.7 5.77,-1.23 11.74,-0.17 17.55,-1.02 7.53,-0.95 13.46,-5.79 18.13,-11.52 4.23,-5.13 7.74,-10.81 11.27,-16.42 2.78,-4.42 5.55,-8.88 8.69,-13.05 2.53,-3.28 5.29,-6.53 8.88,-8.68 10.75,-6.4 19.8,6.62 25.19,14.39 5.57,8.36 10.34,17.23 15.34,25.94 3.63,6.31 7.31,12.62 11.56,18.55 4.68,6.34 10.8,14.07 19.01,15.23 5.43,0.73 10.59,-2.09 14.79,-5.26 3.93,-2.96 7.47,-6.39 11.08,-9.73 6.43,-6 13.17,-11.95 21.33,-15.45 9.53,-4.21 20.17,-4.29 30.41,-4.6 6.52,-0.17 13.05,-0.48 19.56,-0.91 6.8,-0.45 13.61,-0.91 20.42,-1.22 9.31,-0.43 18.63,-0.74 27.94,-1.25"
         style="fill:none;stroke:#b762cc;stroke-width:2px;stroke-linejoin:round"
         id="path33" />
      <path
         d="m 365.37,244.26 c 12.26,-0.89 24.54,-1.33 36.81,-1.84 9.54,-0.39 19.07,-1.19 28.62,-1.11 6.1,0.05 12.2,0.58 18.23,1.51 6.24,0.94 12.41,2.28 18.68,3.01 8.41,1.06 16.63,0.42 24.57,-2.62 16.96,-6.47 27.97,-17.96 47.7,-15 8.23,1.15 16.14,3.99 24.42,4.92 4.43,0.53 8.92,0.49 13.36,0.1 4.53,-0.37 9.06,-1.06 13.62,-0.93 3.77,0.1 7.54,0.9 10.93,2.56 8.71,4.33 14.65,12.47 20.1,20.25 4.91,7.19 9.31,14.72 14.03,22.03 3.54,5.37 7.1,10.88 11.91,15.22 3.13,2.79 7.29,4.8 11.2,2.26 5.67,-3.74 8.94,-13.19 11.13,-19.45 4.96,-15.21 8.01,-30.98 11.11,-46.66 5.17,-26.13 9.09,-52.57 16.14,-78.28 10.74,-37.98 21.19,-27.25 34.19,1.8 8.46,18.68 15.09,38.27 25.22,56.15 4.11,6.84 9.74,15.65 18.23,17.03 3.82,0.6 7.63,-0.48 11.27,-1.53 7.59,-2.34 13.4,-2.95 20.27,1.73 5.68,3.92 10.04,9.39 14.44,14.63 4.18,4.83 11.33,14.73 17.91,15.24 8.93,0.62 13.65,-16.73 15.73,-23.55 3.09,-11.02 5.24,-22.3 7.23,-33.56 4.12,-23.7 7.26,-47.58 10.88,-71.36 2.03,-13.24 4.13,-26.5 6.93,-39.6 1.54,-6.4 6.63,-33.07 15.12,-30.09 2.05,0.78 3.5,2.58 4.74,4.3 1.76,2.53 3.17,5.33 4.44,8.13 5.12,11.57 8.66,23.78 12.2,35.91 5.84,20.52 10.99,41.24 16.46,61.86 4.85,18.11 9.69,36.28 16.03,53.94 2.76,7.45 5.68,14.95 9.98,21.67 3.6,5.56 8.96,10.93 15.66,6.09 4.09,-2.98 6.99,-7.27 9.89,-11.35 4.17,-6.01 8.03,-12.3 12.95,-17.75 16.82,-18.92 29.95,-1.14 46.27,-15.83 4.94,-4.47 8.67,-10.08 12.22,-15.67 5.48,-8.59 10.1,-17.83 16.8,-25.58 3.17,-3.53 7.33,-7.07 12.37,-6.67 7.64,0.7 13.81,9.42 17.88,15.13 7,10.29 12.72,21.37 19.11,32.02 3.5,5.83 7.13,11.62 11.44,16.89 4.68,5.58 10.69,11.55 18.48,11.33 6.62,-0.28 12.2,-4.57 17.17,-8.56 13.77,-11.57 22.73,-20.78 41.89,-22.76 4.79,-0.54 9.62,-0.69 14.44,-0.87 4.73,-0.17 9.47,-0.36 14.19,-0.64 8.01,-0.47 16.02,-1.09 24.04,-1.47 9.52,-0.46 19.04,-0.74 28.56,-1.27"
         style="fill:none;stroke:#56840f;stroke-width:2px;stroke-linejoin:round"
         id="path34" />
      <path
         d="m 365.38,244.27 c 12.72,-0.93 25.47,-1.39 38.22,-1.92 9.82,-0.41 19.63,-1.27 29.47,-1.13 6.13,0.09 12.25,0.7 18.3,1.74 6.41,1.07 12.75,2.59 19.21,3.42 12.24,1.65 21.51,-0.56 32.35,-6.08 4.98,-2.48 9.8,-5.27 14.89,-7.54 9.69,-4.41 18.13,-5.27 28.51,-3.24 8.36,1.61 16.66,4.08 25.24,3.99 7.02,0.09 13.92,-1.62 20.92,-1.73 4.72,-0.08 9.47,1.05 13.52,3.52 10.42,6.33 18.17,19.76 24.39,30.08 4.14,7.01 8.08,14.14 12.5,20.98 3.69,5.44 11.68,18.3 19.51,14.11 8.32,-4.58 13.32,-25.43 15.72,-34.56 3.08,-12.43 5.51,-25.03 7.89,-37.61 4.7,-24.43 8.47,-49.11 15.04,-73.13 2.01,-6.7 6.24,-22.03 13.14,-24.54 5.86,-1.91 11.02,6.47 13.66,10.67 3.78,6.3 6.85,13.01 9.87,19.7 3.84,8.61 7.48,17.32 11.37,25.91 2.68,5.92 5.47,11.81 8.65,17.48 2.58,4.55 5.38,9.03 8.93,12.89 13.7,14.7 22.95,0.51 36.64,5.9 15.19,5.79 27.7,37.46 39.6,38.35 9.43,0.57 14.39,-20.57 16.37,-27.82 3.2,-12.82 5.43,-25.88 7.53,-38.92 4.17,-26.27 7.43,-52.7 11.57,-78.98 1.71,-10.74 3.53,-21.5 5.93,-32.11 1.57,-6.31 5.73,-26.01 12.69,-26.51 7.27,-0.29 14.1,20.9 16.29,26.85 3.62,10.54 6.71,21.28 9.7,32.01 7.07,25.46 13.4,51.14 20.98,76.45 3.66,11.98 7.45,23.99 12.7,35.38 3.52,7.18 10.34,21.38 20.19,15.68 2.39,-1.38 4.38,-3.35 6.21,-5.38 2.17,-2.42 4.15,-5.02 6.12,-7.6 2.97,-3.88 5.92,-7.82 9.33,-11.33 2.91,-2.99 6.22,-5.69 10.11,-7.27 3.47,-1.44 7.29,-1.78 11.01,-1.6 5.57,0.25 11.25,1.32 16.72,-0.2 9.21,-2.58 15.04,-11.02 20,-18.64 4.37,-6.89 8.18,-14.12 12.48,-21.05 10.97,-17.77 20.51,-23.98 34.95,-4.48 7.31,9.92 13.03,20.88 19.33,31.44 6.11,10.03 15.75,27.03 27.26,30.51 8.68,2.67 16.85,-3.31 23.41,-8.33 5.51,-4.26 10.89,-8.75 16.94,-12.24 5.89,-3.47 12.46,-5.72 19.21,-6.73 9.65,-1.43 19.45,-1.28 29.17,-1.92 8.39,-0.48 16.77,-1.13 25.16,-1.54 9.42,-0.47 18.86,-0.73 28.28,-1.25"
         style="fill:none;stroke:#3e7d93;stroke-width:2px;stroke-linejoin:round"
         id="path35" />
      <path
         d="m 365.38,244.28 c 13.21,-0.97 26.39,-1.44 39.62,-1.99 10.01,-0.42 20.01,-1.35 30.03,-1.17 6.34,0.11 12.65,0.83 18.88,2.02 6.51,1.21 12.94,2.89 19.51,3.79 15.37,2.22 25.05,-2.08 38.16,-9.14 6.42,-3.39 13.05,-6.75 20.27,-7.99 6.83,-1.25 13.78,-0.31 20.51,1.05 7.15,1.46 14.39,2.98 21.73,2.61 7.03,-0.2 13.88,-2.21 20.92,-2.34 5.03,-0.12 10.04,1.36 14.15,4.25 10.18,7.11 17.78,21.17 23.87,31.91 4.09,7.37 7.99,14.87 12.31,22.11 3.49,5.56 11.54,19.74 19.39,17.03 8.64,-3.07 13.83,-24.54 16.11,-33.02 3.2,-12.72 5.69,-25.62 8.12,-38.51 4.51,-23.68 8.24,-47.56 14.26,-70.92 2.25,-8.06 4.46,-16.37 8.94,-23.53 4.99,-7.62 10.27,-5.95 15.38,0.46 4.23,5.36 7.32,11.53 10.35,17.62 4.16,8.53 7.94,17.24 11.93,25.84 2.8,6.03 5.68,12.04 8.92,17.84 2.61,4.62 5.44,9.18 8.95,13.17 13.67,15.36 22.74,2.76 35.93,7.74 16.11,6.12 27.89,39.2 40.48,44.59 7.11,2.7 11.07,-6.24 13.29,-11.48 2.77,-6.95 4.58,-14.26 6.23,-21.55 3.74,-17.07 6.28,-34.4 8.78,-51.68 3.93,-27.39 7.19,-54.91 11.98,-82.18 1.91,-9.87 6.17,-35.72 13.39,-41.45 6.43,-4.82 12.35,9.76 14.36,14.13 3.29,7.72 5.92,15.73 8.43,23.74 5.22,16.86 9.76,33.94 14.43,50.96 5.1,18.51 10.13,37.09 16.41,55.24 2.87,8.11 5.92,16.23 10.07,23.78 3.24,5.6 8.4,13.97 15.98,11.83 2.18,-0.64 4.09,-1.97 5.81,-3.41 2.13,-1.81 4.04,-3.88 5.9,-5.96 5.72,-6.34 11.01,-13.66 18.94,-17.37 2.63,-1.21 5.51,-1.84 8.4,-1.94 3.15,-0.12 6.3,0.32 9.42,0.73 4.62,0.62 9.44,1.04 13.92,-0.51 9.39,-3.25 15.48,-13.32 20.38,-21.42 3.48,-5.9 6.66,-11.99 10.12,-17.91 3.82,-6.34 8.92,-15.17 15.77,-18.23 9.45,-4.01 17.48,6.96 22.33,13.6 4.86,6.92 9.06,14.27 13.35,21.55 3.89,6.6 7.78,13.23 12.17,19.52 3.51,4.96 7.31,9.85 12.13,13.6 7.26,5.67 14.54,5.81 22.78,1.26 6.37,-3.5 11.97,-8.22 18.07,-12.14 6.02,-3.97 12.61,-7.16 19.67,-8.78 5.73,-1.36 11.63,-1.83 17.49,-2.15 5.29,-0.28 10.59,-0.48 15.88,-0.79 8.4,-0.48 16.79,-1.13 25.19,-1.54 9.13,-0.45 18.28,-0.7 27.41,-1.2"
         style="fill:none;stroke:#ea3bbd;stroke-width:2px;stroke-linejoin:round"
         id="path36" />
      <path
         d="m 365.38,244.28 c 7.16,-0.47 14.32,-0.95 21.49,-1.26 10.11,-0.43 20.23,-0.76 30.33,-1.41 9.35,-0.56 18.77,-1.14 28.11,-0.12 10.41,0.99 20.4,4.28 30.7,5.9 16.43,2.57 26.17,-2.64 40.08,-10.02 6.55,-3.42 13.48,-6.51 20.91,-7.24 7.39,-0.82 14.73,0.74 21.98,2.02 6.38,1.16 12.92,1.78 19.38,0.96 12.67,-1.5 22.85,-6.72 34.2,2.34 9.61,7.77 16.68,21.44 22.51,32.29 4.05,7.71 7.9,15.54 12.09,23.18 3.51,6.11 11.11,20.74 18.74,21.15 9.12,0.39 14.54,-20.34 16.67,-27.51 3.25,-11.82 5.68,-23.86 8.01,-35.88 4.43,-22.91 8.11,-45.99 13.25,-68.76 2.39,-10.12 4.81,-20.37 9.18,-29.84 4.97,-10.39 10.84,-13.1 18.57,-3.08 3.42,4.44 6.11,9.4 8.7,14.35 3.25,6.29 6.25,12.72 9.3,19.11 3.05,6.38 6.13,12.77 9.55,18.96 2.74,4.92 5.69,9.79 9.31,14.12 13.64,16.13 22.51,5.16 35.17,9.36 16.44,5.71 27.36,37.6 40.18,49.42 7.41,6.72 12.27,0.97 15.58,-6.24 3.69,-8.26 5.71,-17.17 7.65,-25.98 4.31,-20.67 7.1,-41.64 9.96,-62.55 3.25,-23.99 6.18,-48.06 10.23,-71.94 1.45,-8.39 3.05,-16.81 5.19,-25.06 1.54,-5.59 3.1,-11.34 6.18,-16.31 4.82,-7.53 9.65,-2.34 12.98,3.41 3.37,5.87 5.78,12.25 8.09,18.6 4.85,13.69 8.84,27.69 12.82,41.66 7.16,24.97 13.62,50.2 22.54,74.62 3.47,8.89 11.22,30.45 21.61,31.82 4.78,0.57 8.87,-2.79 12.22,-5.78 6.35,-5.75 11.79,-12.94 19.81,-16.47 2.65,-1.15 5.53,-1.73 8.41,-1.76 3.09,-0.05 6.16,0.48 9.19,1.04 4.03,0.74 8.15,1.55 12.26,1.04 8.34,-0.94 14.33,-7.78 18.8,-14.32 5.5,-8.11 9.77,-16.97 14.52,-25.52 2.75,-4.94 5.59,-9.88 9.14,-14.29 3.79,-4.76 9.36,-9.41 15.82,-6.93 9.16,3.43 17.69,18.35 22.78,26.46 5.04,8.28 9.83,16.74 15.28,24.76 5.84,8.36 14.01,19.69 24.96,20.45 7.63,0.43 14.39,-4.06 20.58,-7.97 5.35,-3.47 10.69,-7.03 16.52,-9.66 4.53,-2.07 9.34,-3.55 14.24,-4.43 5.95,-1.09 12.02,-1.41 18.05,-1.73 6.33,-0.31 12.66,-0.63 18.99,-1.05 6.89,-0.45 13.78,-0.91 20.67,-1.22 7.91,-0.36 15.82,-0.59 23.72,-1.02"
         style="fill:none;stroke:#8bdef2;stroke-width:2px;stroke-linejoin:round"
         id="path37" />
      <path
         d="m 365.38,244.3 c 7.26,-0.47 14.53,-0.96 21.8,-1.28 8.67,-0.39 17.36,-0.64 26.03,-1.16 9.82,-0.54 19.67,-1.5 29.51,-0.88 8.68,0.48 17.16,2.53 25.56,4.66 13.66,3.47 23.88,4.69 37.11,-1.08 8.9,-3.79 17.03,-9.38 26.35,-12.16 14.83,-4.54 25.93,1 40.35,1.11 7.01,0.1 13.78,-1.78 20.56,-3.32 3.8,-0.82 7.75,-1.39 11.62,-0.74 7.2,1.13 12.78,6.42 17.14,11.93 7.61,9.84 13.02,21.16 18.53,32.25 3.59,7.33 7.07,14.72 10.87,21.94 3.49,6.39 9.47,18.1 16.18,21.1 8.38,3.52 13.36,-10.48 15.58,-16.42 3.21,-9.17 5.44,-18.67 7.53,-28.14 4.23,-19.57 7.53,-39.34 11.25,-59.01 3.37,-17.19 6.45,-34.58 12.27,-51.15 6.57,-17.81 13.96,-21.8 25.08,-4.04 6.8,10.92 11.99,22.74 18.01,34.1 3.54,6.68 7.22,13.36 11.88,19.35 3.55,4.5 7.95,8.83 13.64,10.34 2.87,0.78 5.88,0.76 8.82,0.54 4.56,-0.37 9.31,-0.87 13.68,0.81 9.66,3.63 16.59,15.55 21.75,24.06 5.61,9.4 10.42,19.33 16.93,28.16 3.01,3.87 8.07,9.94 13.37,6.41 6.43,-4.58 9.94,-19.85 11.85,-27.46 4.98,-21.82 7.84,-44.07 10.85,-66.22 3.12,-23.4 5.92,-46.87 9.54,-70.2 1.39,-8.84 2.9,-17.71 4.81,-26.46 1.44,-6.45 3.01,-12.95 5.49,-19.09 20.82,-51.02 46.96,136.33 74.7,155.39 8.11,6.3 15.91,-1.48 22.06,-6.72 4.32,-3.71 8.78,-7.55 14.25,-9.41 3.16,-1.09 6.58,-1.35 9.89,-0.98 3.89,0.42 7.65,1.55 11.46,2.38 3.91,0.87 8.04,1.36 11.96,0.27 10.19,-2.8 16.83,-14.93 21.7,-23.54 4.47,-8.13 8.42,-16.55 13.17,-24.52 6.93,-11.44 15.63,-22.54 28.42,-9.93 5.76,5.7 10.1,12.64 14.42,19.44 6.75,10.74 12.89,21.92 20.77,31.9 5.73,7.09 13.36,14.74 23.22,13.93 5.4,-0.42 10.36,-2.95 15.03,-5.54 5.83,-3.3 11.51,-6.93 17.68,-9.59 5.76,-2.54 11.92,-4.13 18.16,-4.94 9.77,-1.23 19.64,-1.3 29.45,-1.99 7.54,-0.47 15.09,-1.01 22.64,-1.36 8.09,-0.39 16.2,-0.61 24.29,-1.05"
         style="fill:none;stroke:#ba4c2f;stroke-width:2px;stroke-linejoin:round"
         id="path38" />
    </g>
  </g>
  <path
     d="m 88.546479,323.40355 v -34.94 h 7.94 l 9.020001,21.85 h 0.1 l 8.77,-21.85 h 7.94 v 34.94 h -6.27 v -23.27 h -0.1 l -7.94,19.26 h -5.15 l -7.940001,-19.16 h -0.1 v 23.18 h -6.27 z"
     id="path39" />
  <path
     d="m 139.40648,323.99355 c -3.2,0 -5.92,-0.87 -8.16,-2.62 -2.24,-1.75 -3.36,-4.16 -3.36,-7.23 v -5.73 c 0,-3.23 1.14,-5.8 3.43,-7.69 2.29,-1.89 4.92,-2.84 7.89,-2.84 3.17,0 5.88,0.96 8.13,2.89 2.25,1.93 3.38,4.44 3.38,7.55 v 5.15 c 0,3.23 -1.14,5.8 -3.43,7.69 -2.29,1.9 -4.92,2.84 -7.89,2.84 z m 0,-5.05 c 1.44,0 2.67,-0.41 3.7,-1.22 1.03,-0.81 1.54,-2.06 1.54,-3.72 v -6.22 c 0,-1.47 -0.51,-2.64 -1.52,-3.5 -1.01,-0.86 -2.32,-1.3 -3.92,-1.3 -1.44,0 -2.67,0.41 -3.7,1.22 -1.03,0.82 -1.54,2.06 -1.54,3.72 v 6.17 c 0,1.47 0.51,2.65 1.54,3.53 1.03,0.88 2.33,1.32 3.9,1.32 z"
     id="path40" />
  <path
     d="m 78.056479,366.62355 c 0,1.39 -0.3,2.58 -0.89,3.57 -0.59,0.99 -1.44,1.65 -2.53,1.99 l -0.54,-1.54 c 0.8,-0.29 1.42,-0.79 1.87,-1.51 0.45,-0.71 0.67,-1.58 0.67,-2.59 0,-1.01 -0.23,-1.85 -0.68,-2.53 -0.45,-0.67 -1.08,-1.01 -1.88,-1.01 -0.71,0 -1.25,0.2 -1.63,0.59 -0.38,0.39 -0.68,0.96 -0.91,1.7 l -0.76,2.81 c -0.29,1.08 -0.73,1.9 -1.3,2.45 -0.57,0.56 -1.35,0.83 -2.34,0.83 -1.16,0 -2.09,-0.45 -2.79,-1.35 -0.7,-0.9 -1.05,-2.04 -1.05,-3.41 0,-1.19 0.22,-2.23 0.67,-3.1 0.45,-0.87 1.12,-1.5 2.03,-1.87 l 0.56,1.46 c -1.27,0.67 -1.9,1.84 -1.9,3.54 0,0.83 0.2,1.55 0.61,2.16 0.41,0.61 0.98,0.92 1.73,0.92 1.13,0 1.93,-0.82 2.4,-2.46 l 0.76,-2.83 c 0.55,-2.05 1.8,-3.08 3.76,-3.08 1.23,0 2.22,0.49 2.99,1.46 0.77,0.97 1.15,2.24 1.15,3.81 z"
     style="fill:#666666"
     id="path41" />
  <path
     d="m 77.816479,359.30355 h -14.28 v -9.34 h 1.44 v 7.65 h 4.82 v -6.32 h 1.42 v 6.32 h 6.6 v 1.68 z"
     style="fill:#666666"
     id="path42" />
  <path
     d="m 77.816479,348.13355 h -14.28 v -5.7 c 0,-1.32 0.3,-2.35 0.91,-3.11 0.61,-0.76 1.48,-1.13 2.63,-1.13 0.77,0 1.45,0.23 2.04,0.68 0.59,0.45 0.99,1.08 1.22,1.9 h 0.02 c 0.16,-0.96 0.56,-1.7 1.21,-2.23 0.65,-0.53 1.4,-0.79 2.27,-0.79 1.27,0 2.25,0.44 2.94,1.32 0.69,0.88 1.04,1.94 1.04,3.19 z m -8,-1.68 v -3.56 c 0,-0.89 -0.21,-1.62 -0.64,-2.19 -0.43,-0.57 -1.05,-0.86 -1.86,-0.86 -0.81,0 -1.42,0.27 -1.81,0.8 -0.39,0.53 -0.59,1.25 -0.59,2.15 v 3.66 z m 6.62,0 v -3.83 c 0,-0.94 -0.23,-1.71 -0.68,-2.3 -0.45,-0.59 -1.12,-0.88 -2,-0.88 -0.88,0 -1.51,0.29 -1.94,0.87 -0.43,0.58 -0.64,1.36 -0.64,2.33 v 3.81 z"
     style="fill:#666666"
     id="path43" />
  <path
     d="m 77.816479,331.22355 h -1.18 v -3.62 h -11.68 l 0.54,3.35 -1.1,0.12 -0.9,-4.41 v -0.67 h 13.14 v -3.39 h 1.18 v 8.61 z"
     style="fill:#666666"
     id="path44" />
  <path
     d="m 77.816479,314.12355 h -3.94 v 6.3 h -1.22 l -9.1,-5.82 v -1.79 l 9.06,5.91 v -4.6 h -2.9 l -1.1,-1.58 h 4 v -2.06 h 1.26 v 2.06 h 3.94 z"
     style="fill:#666666"
     id="path45" />
  <path
     d="m 77.816479,306.99355 c -2.44,-0.12 -4.82,-0.68 -7.14,-1.66 -2.32,-0.98 -4.22,-2.19 -5.7,-3.62 v 7.16 h -1.42 v -9.15 h 1.14 c 3.52,3.42 7.89,5.26 13.12,5.49 v 1.79 z"
     style="fill:#666666"
     id="path46" />
  <path
     d="m 76.886479,289.97355 c 0.79,0.87 1.19,2.02 1.19,3.43 0,1.41 -0.31,2.51 -0.92,3.28 -0.61,0.77 -1.35,1.15 -2.2,1.15 h -0.72 v -1.56 h 0.46 c 0.65,0 1.16,-0.28 1.53,-0.84 0.37,-0.56 0.55,-1.24 0.55,-2.05 0,-0.86 -0.26,-1.58 -0.79,-2.16 -0.53,-0.58 -1.4,-0.87 -2.61,-0.87 h -0.5 c -0.92,0 -1.62,0.28 -2.09,0.83 -0.47,0.55 -0.71,1.25 -0.71,2.08 0,1.01 0.35,1.93 1.06,2.77 l -0.2,1.48 -7.38,-0.46 v -7.59 h 1.42 v 6.26 l 4.8,0.29 c -0.68,-1 -1.02,-2.11 -1.02,-3.35 0,-1.07 0.33,-2 0.99,-2.8 0.66,-0.8 1.6,-1.2 2.81,-1.2 h 0.88 c 1.51,0 2.66,0.44 3.45,1.31 z"
     style="fill:#666666"
     id="path47" />
  <path
     d="m 204.91648,322.97355 h -2.6 l -9.08,-26.2 0.16,6.96 v 19.24 h -2.88 v -31.19 h 4.04 l 9.08,26.24 9.08,-26.24 h 4.04 v 31.19 h -2.88 v -19.24 l 0.12,-6.96 z"
     style="fill:#666666"
     id="path48" />
  <path
     d="m 224.07648,313.54355 c 0.12,4.64 2.08,7.52 6.32,7.52 4.24,0 6,-2.6 6,-4.88 h 2.68 v 0.16 c 0,3.28 -2.72,7.08 -8.68,7.08 -6.4,0 -9.16,-4.72 -9.16,-10.6 v -0.88 c 0,-5.88 2.76,-10.6 8.96,-10.6 6.2,0 8.88,4.72 8.88,10.6 v 1.6 z m 0,-2.32 h 12.16 c -0.16,-4.6 -2.04,-7.52 -6.08,-7.52 -4.04,0 -5.96,2.92 -6.08,7.52 z"
     style="fill:#666666"
     id="path49" />
  <path
     d="m 254.31648,301.78355 v 2.52 h -6.76 v 12.44 c 0,3.36 1.4,4.16 4.08,4.16 0.88,0 1.96,-0.2 2.28,-0.36 v 2.44 c -0.32,0.12 -1.28,0.44 -2.96,0.44 -3.6,0 -6.2,-1.72 -6.2,-6.32 v -12.8 h -3.36 v -2.52 h 3.36 v -6 h 2.8 v 6 z"
     style="fill:#666666"
     id="path50" />
  <path
     d="m 271.15648,320.01355 c -1.4,1.84 -3.8,3.4 -7.48,3.4 -3.88,0 -6.12,-2.4 -6.12,-5.8 v -0.4 c 0,-4.6 3.48,-5.92 6.92,-6.44 l 6.4,-1 v -0.56 c 0,-3.64 -1.16,-5.52 -4.92,-5.52 -4,0 -4.92,2.32 -4.92,5.08 h -2.68 v -0.36 c 0,-3.2 1.4,-7.08 7.64,-7.08 5.88,0 7.68,3.2 7.68,7.88 v 7.76 l 0.24,6 h -2.32 z m -0.28,-2.4 v -5.8 l -6.16,1 c -2.72,0.48 -4.36,1.8 -4.36,4.2 v 0.36 c 0,1.88 1.2,3.6 4.04,3.6 3.92,0 5.72,-2.12 6.48,-3.36 z"
     style="fill:#666666"
     id="path51" />
  <path
     d="m 281.27648,320.57355 v 10.4 h -2.8 v -23.2 l -0.24,-6 h 2.32 l 0.4,2.88 c 1.12,-1.8 3.08,-3.32 6.32,-3.32 5.8,0 8.12,4.68 8.12,10.56 v 0.96 c 0,5.88 -2.32,10.56 -8.12,10.56 -2.96,0 -4.88,-1.24 -6,-2.84 z m 0,-2.96 c 0.84,1.4 2.48,3.28 5.36,3.28 4,0 5.88,-3.12 5.88,-8.04 v -0.96 c 0,-4.92 -1.88,-8.04 -5.88,-8.04 -2.88,0 -4.52,1.88 -5.36,3.28 z"
     style="fill:#666666"
     id="path52" />
  <path
     d="m 302.35648,304.34355 c 1.28,-1.68 3.44,-3 6.8,-3 4.2,0 6.44,2.84 6.44,6.8 v 14.84 h -2.8 v -14.44 c 0,-3.2 -1.8,-4.68 -4.6,-4.68 -3.32,0 -4.96,1.88 -5.84,3.28 v 15.84 h -2.8 v -31.99 h 2.8 v 13.36 z"
     style="fill:#666666"
     id="path53" />
  <path
     d="m 319.59648,312.86355 v -0.96 c 0,-5.88 2.68,-10.56 8.92,-10.56 6.24,0 8.92,4.68 8.92,10.56 v 0.96 c 0,5.88 -2.68,10.56 -8.92,10.56 -6.24,0 -8.92,-4.68 -8.92,-10.56 z m 15,0 v -0.96 c 0,-4.84 -1.88,-8.04 -6.08,-8.04 -4.2,0 -6.08,3.2 -6.08,8.04 v 0.96 c 0,4.84 1.88,8.04 6.08,8.04 4.2,0 6.08,-3.2 6.08,-8.04 z"
     style="fill:#666666"
     id="path54" />
  <path
     d="m 350.63648,301.38355 v 2.68 h -0.56 c -3.2,0 -4.76,1.8 -5.64,3.2 v 15.72 h -2.8 v -15.2 l -0.24,-6 h 2.32 l 0.4,2.8 c 1.12,-1.76 3.08,-3.24 5.92,-3.24 0.28,0 0.56,0.04 0.6,0.04 z"
     style="fill:#666666"
     id="path55" />
  <path
     d="m 366.67648,317.17355 c 0,-2.88 -1.68,-3.56 -5.8,-3.92 -5.72,-0.48 -7.36,-2.48 -7.36,-5.64 v -0.24 c 0,-3.68 2.92,-6.04 7.88,-6.04 5.8,0 7.92,2.96 7.92,7.12 v 0.16 h -2.76 c 0,-3.04 -1.2,-4.92 -5.16,-4.92 -3.2,0 -5.08,1.32 -5.08,3.68 0,2.2 1.04,3.4 5.64,3.76 5.32,0.44 7.6,1.96 7.6,5.84 v 0.2 c 0,3.68 -2.92,6.24 -8.16,6.24 -6,0 -8.16,-3.52 -8.16,-6.76 v -0.16 h 2.8 c 0,2.32 1.16,4.56 5.36,4.56 3.44,0 5.28,-1.52 5.28,-3.88 z"
     style="fill:#666666"
     id="path56" />
  <path
     d="m 189.51648,361.86355 v -0.96 c 0,-5.88 2.68,-10.56 8.92,-10.56 6.24,0 8.92,4.68 8.92,10.56 v 0.96 c 0,5.88 -2.68,10.56 -8.92,10.56 -6.24,0 -8.92,-4.68 -8.92,-10.56 z m 15,0 v -0.96 c 0,-4.84 -1.88,-8.04 -6.08,-8.04 -4.2,0 -6.08,3.2 -6.08,8.04 v 0.96 c 0,4.84 1.88,8.04 6.08,8.04 4.2,0 6.08,-3.2 6.08,-8.04 z"
     style="fill:#666666"
     id="path57" />
  <path
     d="m 215.55648,350.78355 h 5.96 v 2.52 h -5.96 v 18.68 h -2.8 v -18.68 h -3.36 v -2.52 h 3.36 v -4.92 c 0,-4.6 2.6,-6.32 6.2,-6.32 1.68,0 2.64,0.32 2.96,0.44 v 2.44 c -0.32,-0.16 -1.4,-0.36 -2.28,-0.36 -2.68,0 -4.08,0.8 -4.08,4.16 z"
     style="fill:#666666"
     id="path58" />
  <path
     d="m 237.23648,371.97355 h -3.57 v -31.19 h 10.71 c 5.51,0 11.86,1.68 11.86,8.88 v 0.8 c 0,4.96 -3.03,7.28 -6.7,8.24 l 6.7,13.28 h -3.92 l -6.15,-12.72 c -0.6,0.04 -1.19,0.04 -1.79,0.04 h -7.14 v 12.68 z m 7.24,-15.28 c 3.32,0 8.09,-1 8.09,-6.36 v -0.6 c 0,-5.36 -4.76,-6.36 -8.09,-6.36 h -7.24 v 13.32 z"
     style="fill:#666666"
     id="path59" />
  <path
     d="m 263.20648,362.54355 c 0.13,4.64 2.21,7.52 6.7,7.52 4.49,0 6.36,-2.6 6.36,-4.88 h 2.84 v 0.16 c 0,3.28 -2.88,7.08 -9.2,7.08 -6.78,0 -9.71,-4.72 -9.71,-10.6 v -0.88 c 0,-5.88 2.93,-10.6 9.5,-10.6 6.57,0 9.41,4.72 9.41,10.6 v 1.6 z m 0,-2.32 h 12.89 c -0.17,-4.6 -2.16,-7.52 -6.45,-7.52 -4.29,0 -6.32,2.92 -6.45,7.52 z"
     style="fill:#666666"
     id="path60" />
  <path
     d="m 283.55648,339.98355 h 2.97 v 31.99 h -2.97 z"
     style="fill:#666666"
     id="path61" />
  <path
     d="m 295.38648,345.78355 h -3.82 v -3.6 h 3.82 z m -3.39,5 h 2.97 v 21.2 h -2.97 z"
     style="fill:#666666"
     id="path62" />
  <path
     d="m 314.38648,368.09355 c -1.23,1.6 -3.22,2.8 -6.36,2.8 -6.11,0 -8.61,-4.44 -8.61,-9.84 v -0.88 c 0,-5.32 2.5,-9.84 8.61,-9.84 3.43,0 5.51,1.48 6.7,3.28 l 0.42,-2.84 h 2.46 l -0.25,6 v 15.4 c 0,4.76 -2.42,8.24 -8.82,8.24 -6.4,0 -8.69,-3.56 -8.69,-7.92 v -0.52 h 2.84 c 0,4 1.61,6 5.81,6 4.2,0 5.89,-2.08 5.89,-5.96 z m -5.72,-15.24 c -4.2,0 -6.23,2.96 -6.23,7.32 v 0.88 c 0,4.44 2.04,7.32 6.23,7.32 3.09,0 4.79,-1.88 5.72,-3.24 v -9 c -0.93,-1.4 -2.63,-3.28 -5.72,-3.28 z"
     style="fill:#666666"
     id="path63" />
  <path
     d="m 325.87648,345.78355 h -3.82 v -3.6 h 3.82 z m -3.39,5 h 2.97 v 21.2 h -2.97 z"
     style="fill:#666666"
     id="path64" />
  <path
     d="m 329.90648,361.86355 v -0.96 c 0,-5.88 2.84,-10.56 9.46,-10.56 6.62,0 9.46,4.68 9.46,10.56 v 0.96 c 0,5.88 -2.84,10.56 -9.46,10.56 -6.62,0 -9.46,-4.68 -9.46,-10.56 z m 15.9,0 v -0.96 c 0,-4.84 -1.99,-8.04 -6.45,-8.04 -4.46,0 -6.45,3.2 -6.45,8.04 v 0.96 c 0,4.84 1.99,8.04 6.45,8.04 4.46,0 6.45,-3.2 6.45,-8.04 z"
     style="fill:#666666"
     id="path65" />
  <path
     d="m 367.00648,371.97355 v -14.44 c 0,-3.2 -1.91,-4.68 -4.88,-4.68 -3.52,0 -5.26,1.88 -6.19,3.28 v 15.84 h -2.97 v -15.2 l -0.25,-6 h 2.46 l 0.42,3 c 1.31,-1.88 3.69,-3.44 7.55,-3.44 4.45,0 6.83,2.84 6.83,6.8 v 14.84 z"
     style="fill:#666666"
     id="path66" />
  <line
     x1="170.64648"
     y1="34.533554"
     x2="170.64648"
     y2="389.12354"
     style="fill:#666666;stroke:#666666;stroke-width:2px;stroke-miterlimit:10"
     id="line66" />
  <path
     d="m 88.766479,371.77355 v -34.94 h 18.100001 c 4.49,0 8.21,0.96 11.14,2.89 2.93,1.93 4.4,4.62 4.4,8.08 0,2.22 -0.77,4.27 -2.31,6.15 -1.54,1.88 -3.79,3.21 -6.74,3.99 l 11.36,13.82 h -9.31 l -10.72,-13.08 h -7.380001 v 13.08 h -8.54 z m 8.54,-18.57 h 8.540001 c 2.52,0 4.53,-0.47 6,-1.4 1.47,-0.93 2.21,-2.28 2.21,-4.04 0,-3.63 -2.78,-5.44 -8.34,-5.44 h -8.410001 z"
     id="path67" />
  <path
     d="m 139.92648,372.36355 c -3.43,0 -6.32,-0.89 -8.66,-2.67 -2.34,-1.78 -3.52,-4.3 -3.52,-7.57 v -4.9 c 0,-3.4 1.15,-6.08 3.44,-8.04 2.29,-1.96 5.14,-2.94 8.54,-2.94 3.09,0 5.74,0.86 7.95,2.57 2.21,1.71 3.31,4.14 3.31,7.28 v 4.85 h -16.77 v 1.37 c 0,1.54 0.58,2.76 1.73,3.67 1.15,0.92 2.58,1.37 4.28,1.37 1.02,0 2.04,-0.29 3.06,-0.88 1.02,-0.59 1.88,-1.37 2.6,-2.35 l 4.79,2.65 c -1.94,3.72 -5.52,5.59 -10.75,5.59 z m -5.71,-15.58 h 10.55 v -0.69 c 0,-1.6 -0.48,-2.8 -1.45,-3.6 -0.97,-0.8 -2.17,-1.2 -3.59,-1.2 -1.42,0 -2.79,0.42 -3.87,1.27 -1.09,0.85 -1.63,2.14 -1.63,3.87 v 0.34 z"
     id="path68" />
</svg>
